<svg width="301" height="222" viewBox="0 0 301 222" fill="none" xmlns="http://www.w3.org/2000/svg">
<g filter="url(#filter0_d_1_7532)">
<g clip-path="url(#clip0_1_7532)">
<rect width="340" height="180" rx="7.25333" transform="matrix(0.962455 0.27144 -0.707107 0.707107 128.034 0)" fill="#0078FF"/>
<path d="M365.883 175.478L365.885 175.481C368.377 178.016 372.008 180.088 377.22 179.705C383.124 179.256 389.474 176.148 395.544 172.23C399.707 169.543 403.598 166.572 407.019 163.959C408.578 162.769 410.038 161.654 411.383 160.673C412.54 159.826 413.734 158.935 414.96 158.019C417.63 156.025 420.455 153.914 423.401 151.894C427.712 148.939 432.361 146.121 437.337 144.039L437.345 144.036C439.233 143.26 441.103 142.57 443.066 142.032C446.305 141.136 449.346 140.835 452.245 140.548C452.743 140.498 453.236 140.45 453.726 140.398C457.102 140.044 460.386 139.567 463.996 138.094C467.577 136.614 471.943 133.352 475.54 129.385C479.11 125.449 481.824 120.925 482.244 116.967C482.234 116.889 482.242 116.819 482.247 116.781L482.248 116.773C482.251 116.742 482.252 116.729 482.252 116.726L482.242 116.685L482.245 116.638C482.464 113.732 481.254 111.855 479.922 110.283C475.571 105.35 468.14 102.22 457.574 103.867C456.048 104.127 455.057 103.577 454.316 102.971L454.312 102.968C453.399 102.198 452.701 101.014 452.089 99.7283C451.731 98.9778 451.389 98.1604 451.049 97.349C450.809 96.7758 450.571 96.2056 450.329 95.6641C449.733 94.3299 449.103 93.137 448.337 92.3063C447.544 91.4485 446.739 91.1231 445.937 91.1914L445.937 91.1914C442.599 91.4743 439.007 92.3511 435.25 93.5169C432.305 94.4307 429.307 95.5058 426.278 96.5923C425.435 96.8946 424.59 97.1976 423.743 97.4984C416.059 100.226 408.165 102.787 401.417 102.116L401.416 102.116C396.336 101.606 391.141 101.914 385.794 102.445C384.057 102.617 382.293 102.814 380.511 103.013C376.848 103.422 373.108 103.84 369.361 104.069C368.458 104.125 367.61 103.977 366.824 103.724C366.033 103.469 365.257 103.093 364.499 102.65C363.102 101.835 361.697 100.753 360.316 99.6901C360.2 99.6011 360.085 99.5122 359.97 99.4236C358.462 98.2649 356.988 97.158 355.537 96.4033C354.813 96.0268 354.121 95.7519 353.461 95.6004C352.802 95.4489 352.224 95.4315 351.711 95.5236C348.271 96.1433 344.979 97.6097 341.837 99.6626C338.693 101.717 335.746 104.329 333.019 107.177C328.29 112.114 324.303 117.673 321.121 122.109C320.63 122.794 320.157 123.453 319.705 124.078M365.883 175.478L318.973 123.99M365.883 175.478C364.076 173.677 362.744 171.596 361.446 169.438C361.264 169.135 361.083 168.831 360.901 168.526C359.793 166.665 358.665 164.771 357.249 163.011M365.883 175.478L365.154 175.835M319.705 124.078C319.705 124.078 319.704 124.078 319.704 124.078L318.973 123.99M319.705 124.078C319.705 124.078 319.705 124.078 319.705 124.078L318.973 123.99M319.705 124.078C316.947 127.891 315.052 131.876 313.688 135.836L313.687 135.839C311.828 141.093 311.726 146.232 314.211 150.009C316.683 153.764 321.718 156.187 330.253 156.049L330.255 156.049C338.734 155.928 345.926 155.917 351.319 158.351L351.322 158.352C353.637 159.41 355.634 160.917 357.249 163.011M318.973 123.99C316.176 127.858 314.262 131.887 312.889 135.875C309.127 146.507 312.403 156.848 330.036 156.564C338.546 156.442 345.512 156.445 350.726 158.798C352.964 159.821 354.911 161.285 356.493 163.337M357.249 163.011C357.249 163.01 357.248 163.009 357.247 163.008L356.493 163.337M357.249 163.011C357.25 163.012 357.251 163.012 357.251 163.013L356.493 163.337M356.493 163.337C357.894 165.079 359.011 166.953 360.121 168.816C361.595 171.29 363.056 173.743 365.154 175.835M365.154 175.835C367.671 178.395 371.462 180.628 377.076 180.216C387.68 179.411 399.215 170.604 407.635 164.175C409.182 162.994 410.623 161.893 411.935 160.937C413.109 160.078 414.311 159.18 415.543 158.26C422.096 153.364 429.461 147.863 437.637 144.443C439.496 143.679 441.307 143.013 443.193 142.496L365.154 175.835Z" stroke="#338EFF" stroke-opacity="0.5" stroke-width="1.36" stroke-miterlimit="10"/>
<path d="M362.528 179.275L362.527 179.274C360.57 177.247 359.13 174.929 357.727 172.551C357.573 172.289 357.419 172.027 357.264 171.764C356.023 169.649 354.766 167.509 353.168 165.551C351.359 163.261 349.215 161.602 346.651 160.44C340.79 157.751 332.964 157.702 323.568 157.86C313.989 158.007 308.371 155.303 305.63 151.118C302.875 146.912 303.022 141.192 305.098 135.346C306.681 130.942 308.794 126.513 311.845 122.257C312.417 121.467 313.018 120.627 313.646 119.748C317.121 114.884 321.446 108.83 326.564 103.432C329.582 100.248 332.849 97.3222 336.341 95.0211C339.831 92.7216 343.497 91.077 347.338 90.3894L347.343 90.3885C347.936 90.2801 348.595 90.3013 349.336 90.4732C350.077 90.6451 350.851 90.9567 351.656 91.3814C353.27 92.2325 354.906 93.4807 356.574 94.7841C356.707 94.8877 356.839 94.9916 356.972 95.0957C358.496 96.2884 360.043 97.4992 361.578 98.412C362.415 98.9094 363.269 99.331 364.138 99.616C365.001 99.8992 365.927 100.064 366.91 100.002C371.113 99.7449 375.29 99.2688 379.379 98.8028C381.343 98.579 383.287 98.3575 385.203 98.1636C391.149 97.5622 396.936 97.2129 402.64 97.8064L402.642 97.8066C410.06 98.5628 418.763 95.6866 427.267 92.6069C428.209 92.2658 429.149 91.9218 430.086 91.5787C433.434 90.354 436.75 89.1406 440.009 88.108C444.173 86.7886 448.161 85.7922 451.87 85.4659C452.776 85.3887 453.664 85.7681 454.517 86.7345C455.343 87.6715 456.011 89.0149 456.637 90.5136C456.895 91.1312 457.149 91.7814 457.403 92.4344C457.755 93.3372 458.109 94.2456 458.481 95.082C459.125 96.5292 459.859 97.8571 460.829 98.7268C461.628 99.4619 462.763 99.9925 464.342 99.7392C475.962 97.9079 484.183 101.393 489.007 106.881C490.483 108.599 491.797 110.725 491.556 113.982L491.552 114.029L491.56 114.059C491.558 114.071 491.555 114.086 491.549 114.118C491.544 114.146 491.535 114.192 491.53 114.239C491.527 114.272 491.525 114.313 491.53 114.359C491.088 118.737 488.089 123.765 484.134 128.143C480.152 132.551 475.302 136.189 471.306 137.835C467.268 139.499 463.606 140.032 459.86 140.424C459.313 140.481 458.762 140.536 458.207 140.59C454.995 140.907 451.642 141.238 448.07 142.235L448.061 142.238L448.051 142.241C445.925 142.866 443.818 143.596 441.709 144.478L441.706 144.48C436.204 146.801 431.067 149.934 426.299 153.217C423.114 155.409 420.056 157.696 417.158 159.863C415.729 160.931 414.34 161.97 412.994 162.954L412.993 162.954C411.52 164.032 409.915 165.263 408.199 166.58C404.424 169.476 400.112 172.785 395.493 175.773C388.763 180.127 381.682 183.593 375.07 184.058L375.065 184.058C369.32 184.482 365.244 182.111 362.528 179.275Z" stroke="#338EFF" stroke-opacity="0.5" stroke-width="1.36" stroke-miterlimit="10"/>
<path d="M359.195 183.085L359.193 183.082C357.086 180.83 355.559 178.276 354.059 175.66C353.93 175.437 353.802 175.213 353.674 174.989C352.308 172.599 350.923 170.178 349.109 167.957C347.102 165.467 344.739 163.659 342.006 162.396C335.7 159.401 327.206 159.343 316.902 159.537L316.901 159.537C306.333 159.743 300.15 156.759 297.142 152.137C294.12 147.494 294.301 141.18 296.582 134.768L296.582 134.767C298.286 129.966 300.544 125.096 303.982 120.353L303.983 120.353C304.642 119.441 305.336 118.468 306.064 117.447C309.853 112.133 314.563 105.528 320.133 99.6223C323.451 96.1051 327.045 92.8673 330.894 90.317C334.74 87.7685 338.789 85.9386 343.039 85.1708C343.71 85.0509 344.448 85.0805 345.269 85.2773C346.091 85.4742 346.945 85.8267 347.831 86.3033C349.605 87.2579 351.402 88.6523 353.229 90.1036C353.369 90.2155 353.51 90.3277 353.652 90.44C355.326 91.7721 357.022 93.1219 358.706 94.1386C359.621 94.691 360.553 95.1579 361.499 95.4733C362.44 95.7866 363.444 95.9673 364.506 95.9005C369.174 95.629 373.822 95.0988 378.381 94.5787C380.487 94.3384 382.575 94.1003 384.636 93.8909C391.198 93.2243 397.596 92.8348 403.887 93.5107L404.241 93.0023L403.887 93.5107C411.963 94.378 421.475 91.186 430.803 87.7484C431.85 87.3624 432.896 86.9729 433.939 86.5844C437.596 85.2225 441.223 83.8716 444.787 82.7206C449.36 81.2433 453.747 80.124 457.827 79.7545L457.832 79.754C458.845 79.6586 459.818 80.0868 460.739 81.1649C461.631 82.21 462.342 83.7099 463.005 85.3795C463.28 86.0716 463.548 86.799 463.818 87.5292C464.188 88.5311 464.56 89.5383 464.952 90.4667C465.633 92.0774 466.412 93.5491 467.45 94.5072C468.343 95.3396 469.517 95.9212 471.236 95.6796L471.247 95.678L471.258 95.6763C484.08 93.6637 493.067 97.5554 498.312 103.547C499.934 105.414 501.373 107.74 501.109 111.344L501.108 111.356L501.108 111.368C501.108 111.408 501.102 111.442 501.09 111.503C501.079 111.562 501.063 111.645 501.061 111.745C500.557 116.574 497.244 122.128 492.886 126.959C488.507 131.814 483.175 135.828 478.765 137.64C474.31 139.471 470.268 140.061 466.146 140.497C465.552 140.56 464.955 140.62 464.354 140.68C460.819 141.033 457.145 141.4 453.233 142.499C450.854 143.129 448.541 143.961 446.247 144.936C440.193 147.473 434.549 150.92 429.321 154.536C425.803 156.968 422.435 159.505 419.252 161.902C417.714 163.059 416.22 164.185 414.773 165.25C413.119 166.456 411.31 167.842 409.371 169.328C405.25 172.487 400.545 176.093 395.509 179.355C388.093 184.157 380.276 187.993 372.993 188.474C366.578 188.892 362.106 186.265 359.195 183.085Z" stroke="#338EFF" stroke-opacity="0.5" stroke-width="1.36" stroke-miterlimit="10"/>
<path d="M355.802 186.88L355.801 186.878C353.545 184.401 351.911 181.609 350.317 178.752C350.154 178.46 349.992 178.167 349.829 177.874C348.405 175.308 346.964 172.712 345.096 170.31L345.094 170.308C342.964 167.618 340.451 165.656 337.467 164.289C330.525 161.089 321.448 161.021 310.258 161.202L310.255 161.202C298.643 161.418 291.882 158.141 288.608 153.083C285.319 148.002 285.545 141.107 288.032 134.128L288.032 134.127C289.879 128.887 292.429 123.574 296.161 118.386C296.905 117.356 297.69 116.253 298.514 115.093C302.629 109.306 307.738 102.12 313.773 95.6902C317.392 91.8339 321.317 88.2808 325.52 85.483C329.721 82.6872 334.15 80.6786 338.801 79.8425C339.55 79.7111 340.369 79.7488 341.271 79.9695C342.173 80.1903 343.109 80.5822 344.076 81.1087C346.012 82.1631 347.971 83.6992 349.958 85.295C350.118 85.4233 350.277 85.5519 350.437 85.6806C352.253 87.1413 354.089 88.6183 355.909 89.7343C356.902 90.3426 357.91 90.8567 358.931 91.2056C359.947 91.5527 361.026 91.7541 362.162 91.689L362.168 91.6886C367.164 91.3789 372.136 90.8031 377.016 90.2379C379.411 89.9605 381.784 89.6856 384.127 89.4461C391.285 88.7142 398.271 88.2962 405.151 89.0546L405.152 89.0547C409.52 89.5323 414.28 88.8911 419.194 87.6679C424.1 86.4469 429.215 84.6322 434.317 82.7295C435.483 82.2944 436.649 81.8549 437.812 81.4164C441.76 79.9277 445.68 78.4497 449.531 77.1859C454.51 75.5522 459.287 74.3065 463.728 73.8811C464.849 73.7762 465.903 74.2626 466.882 75.4542C467.832 76.6105 468.578 78.2671 469.268 80.1073C469.555 80.875 469.836 81.681 470.117 82.4898C470.499 83.59 470.883 84.6952 471.291 85.716C472 87.4921 472.815 89.1116 473.911 90.1698C474.827 91.1001 476.131 91.7522 477.978 91.4483C491.998 89.2572 501.77 93.5066 507.409 100.045C509.149 102.104 510.705 104.617 510.438 108.533C510.359 108.735 510.361 108.919 510.362 109.037L510.362 109.043C509.823 114.316 506.201 120.385 501.447 125.662C496.671 130.963 490.856 135.354 486.066 137.334L486.065 137.334C481.183 139.356 476.779 140.002 472.298 140.476C471.642 140.545 470.983 140.611 470.32 140.677C466.482 141.06 462.497 141.457 458.227 142.654C455.578 143.38 453.072 144.308 450.619 145.324L450.607 145.329C444.017 148.129 437.878 151.904 432.188 155.853C428.436 158.457 424.841 161.166 421.435 163.731C419.688 165.047 417.992 166.325 416.35 167.532C414.616 168.804 412.719 170.264 410.686 171.828C406.158 175.312 400.955 179.314 395.385 182.923C387.3 188.162 378.748 192.358 370.78 192.878L370.779 192.878C363.833 193.337 358.94 190.365 355.802 186.88Z" stroke="#338EFF" stroke-opacity="0.5" stroke-width="1.36" stroke-miterlimit="10"/>
<path d="M352.452 190.7L352.452 190.7C355.813 194.486 361.077 197.758 368.707 197.26L368.712 197.26C377.389 196.724 386.672 192.169 395.417 186.495C401.444 182.584 407.069 178.243 411.951 174.475C414.141 172.785 416.182 171.21 418.042 169.841M352.452 190.7L418.597 170.103M352.452 190.7C350.045 187.996 348.3 184.979 346.581 181.902C346.451 181.668 346.32 181.434 346.19 181.199C344.607 178.359 343.007 175.486 340.9 172.827L340.899 172.825C338.57 169.933 335.885 167.873 332.688 166.357L332.685 166.355C325.275 162.9 315.562 162.773 303.457 162.99L303.453 162.99C290.814 163.264 283.488 159.707 279.957 154.213C276.411 148.695 276.687 141.207 279.38 133.661L279.38 133.66C281.397 127.924 284.091 122.17 288.186 116.546L288.186 116.546C289.091 115.302 290.05 113.957 291.063 112.538C295.472 106.356 300.887 98.7634 307.258 91.9432C311.172 87.7538 315.417 83.8882 319.971 80.8412C324.523 77.7956 329.332 75.6012 334.394 74.6853M352.452 190.7L287.455 116.456M418.042 169.841L418.597 170.103M418.042 169.841C418.041 169.842 418.041 169.842 418.04 169.843L418.597 170.103M418.042 169.841C419.784 168.554 421.584 167.19 423.438 165.786C427.13 162.989 431.036 160.03 435.122 157.185C441.274 152.902 447.921 148.812 455.065 145.796L455.068 145.795C457.728 144.677 460.4 143.706 463.229 142.888L463.238 142.885C467.852 141.584 472.175 141.149 476.348 140.73C477.061 140.658 477.77 140.587 478.476 140.512C483.342 139.994 488.124 139.292 493.384 137.103C498.605 134.931 504.897 130.175 510.062 124.44C515.206 118.73 519.133 112.158 519.754 106.415M418.597 170.103C420.359 168.801 422.169 167.429 424.029 166.021C433.252 159.034 443.682 151.133 455.369 146.198C457.987 145.098 460.606 144.147 463.373 143.347C467.855 142.083 472.043 141.661 476.219 141.24C481.832 140.675 487.424 140.112 493.681 137.508C504.594 132.968 519.319 117.992 520.573 106.282M519.754 106.415L519.754 106.432L520.573 106.282M519.754 106.415L519.754 106.411C519.753 106.292 519.752 106.108 519.83 105.907M519.754 106.415C519.755 106.409 519.756 106.403 519.756 106.398L520.573 106.282M520.573 106.282C520.572 106.133 520.571 105.985 520.644 105.837M406.671 84.2641C396.633 83.1338 386.393 84.3192 375.968 85.5263C370.639 86.1433 365.261 86.7659 359.836 87.0877C355.914 87.3152 351.824 84.0009 347.703 80.662C343.244 77.0494 338.749 73.408 334.394 74.1925M406.671 84.2641L406.311 84.7719C406.311 84.7719 406.311 84.7719 406.311 84.772M406.671 84.2641L406.311 84.772M406.671 84.2641C416.722 85.4047 428.976 80.7258 441.293 76.0231C451.085 72.2845 460.915 68.5309 469.71 67.6742M406.311 84.772C398.844 83.9311 391.247 84.3893 383.472 85.1864C380.984 85.4415 378.466 85.7329 375.927 86.0268C370.577 86.646 365.134 87.2761 359.673 87.6001L359.672 87.6002C358.457 87.6706 357.299 87.4535 356.204 87.0764C355.103 86.6973 354.014 86.1383 352.941 85.4754C350.968 84.2573 348.977 82.6445 347.007 81.0484C346.837 80.9102 346.666 80.7721 346.496 80.6344C344.344 78.8937 342.221 77.2161 340.125 76.065C339.078 75.4901 338.063 75.0614 337.084 74.8202C336.105 74.5789 335.213 74.5379 334.394 74.6853M406.311 84.772C411.008 85.3048 416.133 84.6124 421.434 83.2799C426.727 81.9496 432.248 79.9669 437.763 77.8847C439.034 77.4048 440.304 76.92 441.571 76.4362C445.83 74.8101 450.062 73.1944 454.219 71.812C459.607 70.0207 464.782 68.6519 469.595 68.1828M334.394 74.6853L334.394 74.1925M334.394 74.6853C334.393 74.6854 334.393 74.6854 334.393 74.6855L334.394 74.1925M334.394 74.1925C315.128 77.6786 300.144 98.6888 290.318 112.468C289.309 113.883 288.354 115.221 287.455 116.456M287.455 116.456C283.319 122.136 280.607 127.936 278.582 133.696C273.154 148.908 277.392 164.064 303.243 163.504L287.455 116.456ZM469.595 68.1828C469.594 68.1829 469.594 68.1829 469.594 68.1829L469.71 67.6742M469.595 68.1828C470.192 68.1263 470.771 68.2254 471.345 68.5154C471.926 68.8086 472.465 69.2798 472.968 69.911C473.974 71.1743 474.76 72.9819 475.485 74.9867C475.788 75.8255 476.082 76.7051 476.378 77.5876C476.779 78.7848 477.181 79.9874 477.61 81.1003C478.357 83.0403 479.216 84.8064 480.373 85.964L480.372 85.9641L480.38 85.9714C481.406 86.9402 482.68 87.644 484.67 87.3492L484.681 87.3476C499.902 84.9743 510.367 89.6276 516.504 96.6729M469.595 68.1828C469.595 68.1828 469.596 68.1827 469.597 68.1826L469.71 67.6742M469.71 67.6742C473.814 67.2844 475.505 72.3387 477.187 77.3628C478.277 80.6222 479.364 83.8689 481.102 85.6081C482.114 86.5633 483.196 87.0742 484.716 86.8491C500.375 84.4075 511.05 89.2166 517.25 96.3352M516.504 96.6729C516.504 96.6725 516.503 96.672 516.503 96.6716L517.25 96.3352M516.504 96.6729C516.504 96.6731 516.504 96.6734 516.505 96.6736L517.25 96.3352M516.504 96.6729C518.438 98.9296 520.096 101.691 519.83 105.907M517.25 96.3352C519.227 98.6407 520.937 101.487 520.644 105.837M519.83 105.907C519.84 105.88 519.852 105.853 519.866 105.826L520.644 105.837M519.83 105.907C519.829 105.927 519.827 105.946 519.826 105.966L520.644 105.837" stroke="#338EFF" stroke-opacity="0.5" stroke-width="1.36" stroke-miterlimit="10"/>
<path d="M349.084 194.498L349.082 194.496C346.526 191.567 344.674 188.312 342.828 185.004C342.752 184.867 342.676 184.731 342.599 184.594C340.834 181.428 339.048 178.224 336.637 175.271C334.204 172.124 331.223 169.914 327.86 168.299L327.856 168.297C319.978 164.586 309.599 164.45 296.587 164.703L296.585 164.703C282.977 164.987 275.091 161.139 271.292 155.206C267.48 149.252 267.784 141.183 270.681 133.071C272.916 126.891 275.829 120.693 280.217 114.627L280.217 114.626C281.154 113.328 282.146 111.926 283.192 110.448C287.929 103.754 293.782 95.4826 300.685 88.0589C304.896 83.5304 309.469 79.3496 314.377 76.055C319.282 72.7622 324.47 70.3889 329.934 69.4045C330.832 69.2456 331.803 69.2954 332.863 69.5619C333.922 69.8283 335.017 70.2981 336.144 70.9247C338.401 72.1795 340.684 74.0034 342.994 75.8918C343.173 76.0378 343.352 76.1841 343.531 76.3306C345.651 78.0662 347.791 79.818 349.913 81.14C351.064 81.8578 352.231 82.4621 353.409 82.8714C354.582 83.2788 355.818 83.5115 357.111 83.4358L357.113 83.4357C362.99 83.0843 368.838 82.3981 374.589 81.7232C377.319 81.4029 380.027 81.0851 382.706 80.8069C391.071 79.9383 399.262 79.4394 407.354 80.3635C412.384 80.9387 417.88 80.1925 423.572 78.7525C429.255 77.3147 435.187 75.1707 441.117 72.915C442.518 72.3821 443.918 71.8433 445.315 71.3055C449.859 69.5566 454.376 67.8182 458.812 66.3265C464.606 64.3786 470.174 62.883 475.348 62.3581C476.013 62.2915 476.649 62.3999 477.272 62.7149C477.901 63.0331 478.481 63.5456 479.018 64.2308C480.092 65.602 480.919 67.5659 481.676 69.7413C481.995 70.6599 482.304 71.6231 482.614 72.5888C483.028 73.8794 483.443 75.1745 483.887 76.3735C484.665 78.4768 485.564 80.3866 486.789 81.6327C487.86 82.7221 489.279 83.4116 491.325 83.124L491.336 83.1225L491.347 83.1207C507.621 80.5656 518.946 85.5777 525.479 93.1725L525.479 93.1736C527.619 95.641 529.407 98.6154 529.027 103.207L529.026 103.221L529.026 103.234C529.026 103.296 529.022 103.371 529.016 103.46L529.015 103.466C529.01 103.542 529.005 103.631 529.004 103.711C528.349 109.899 524.112 116.987 518.572 123.143C513.01 129.324 506.236 134.457 500.634 136.797L500.634 136.797C494.946 139.177 489.785 139.935 484.549 140.49C483.786 140.571 483.02 140.648 482.249 140.725C477.764 141.174 473.131 141.638 468.185 143.04L468.179 143.042C465.178 143.907 462.234 144.974 459.374 146.189L459.37 146.191C451.727 149.472 444.605 153.888 438.003 158.504C433.705 161.509 429.589 164.627 425.688 167.582C423.609 169.157 421.592 170.685 419.641 172.125L419.64 172.126C417.7 173.561 415.572 175.208 413.288 176.975C408.001 181.067 401.879 185.805 395.316 190.065C385.903 196.174 375.886 201.09 366.522 201.665C358.373 202.157 352.64 198.628 349.084 194.498Z" stroke="#338EFF" stroke-opacity="0.5" stroke-width="1.36" stroke-miterlimit="10"/>
<path d="M345.729 198.3L345.729 198.3C349.509 202.732 355.613 206.562 364.447 206.03L364.449 206.03C374.523 205.439 385.272 200.164 395.347 193.613C402.405 189.025 408.984 183.912 414.65 179.509C417.061 177.636 419.306 175.891 421.352 174.37L421.353 174.369C423.383 172.864 425.48 171.27 427.64 169.627C431.847 166.429 436.294 163.047 440.95 159.788C448.011 154.843 455.641 150.113 463.846 146.593M345.729 198.3L464.157 146.992M345.729 198.3C343.024 195.146 341.084 191.655 339.173 188.106C339.047 187.871 338.92 187.636 338.794 187.401C337.014 184.088 335.216 180.741 332.809 177.633L332.808 177.631C330.179 174.285 327.05 171.922 323.436 170.203L323.434 170.202C315.016 166.236 303.929 166.039 290.076 166.329L290.075 166.329C275.412 166.647 266.936 162.529 262.866 156.174C258.781 149.795 259.13 141.145 262.245 132.441M345.729 198.3L261.447 132.475M463.846 146.593L464.157 146.992M463.846 146.593C463.846 146.593 463.846 146.593 463.846 146.593L464.157 146.992M463.846 146.593C466.909 145.278 470.023 144.166 473.284 143.208L473.292 143.205C478.627 141.669 483.617 141.168 488.455 140.682C489.242 140.603 490.025 140.525 490.805 140.442C496.414 139.848 501.948 139.046 508.051 136.499L508.052 136.499C514.066 133.993 521.305 128.484 527.245 121.857C533.168 115.249 537.7 107.638 538.42 101L538.42 100.997C538.431 100.908 538.436 100.829 538.442 100.742C538.447 100.658 538.453 100.565 538.465 100.46M464.157 146.992C467.167 145.7 470.227 144.607 473.434 143.665C478.634 142.167 483.486 141.679 488.329 141.192C494.754 140.546 501.164 139.902 508.35 136.904C520.853 131.694 537.773 114.374 539.237 100.885C539.248 100.786 539.254 100.699 539.26 100.613C539.265 100.526 539.271 100.44 539.283 100.341M538.465 100.46C538.465 100.461 538.465 100.463 538.465 100.465L539.283 100.341M538.465 100.46C538.866 95.5242 536.955 92.3514 534.669 89.7352L534.666 89.7318C527.739 81.5887 515.627 76.2183 498.153 78.953M538.465 100.46C538.465 100.458 538.466 100.456 538.466 100.454L539.283 100.341M539.283 100.341C539.694 95.2992 537.736 92.0535 535.414 89.3964C528.422 81.177 516.099 75.6506 498.184 78.4551M481.417 56.0861C471.348 57.1386 460.092 61.506 448.885 65.8542C434.688 71.3626 420.57 76.8403 409.046 75.5089C397.364 74.1543 385.504 75.5441 373.443 76.9575C367.332 77.6736 361.169 78.3958 354.952 78.7702C350.441 79.0365 345.752 75.1557 341.024 71.2428C335.909 67.0091 330.748 62.7378 325.718 63.6411C303.498 67.6261 286.193 92.1107 274.946 108.023C273.802 109.642 272.72 111.172 271.703 112.583M481.417 56.0861L481.308 56.5942C481.309 56.5941 481.31 56.594 481.311 56.5939M481.417 56.0861C486.108 55.6141 487.95 61.5277 489.78 67.4022C490.963 71.1989 492.14 74.9792 494.079 77.0089C495.165 78.1137 496.493 78.7271 498.184 78.4551M481.417 56.0861L481.313 56.5936C481.312 56.5937 481.312 56.5938 481.311 56.5939M481.311 56.5939C475.757 57.1747 469.789 58.797 463.588 60.9012C458.846 62.5103 454.021 64.3824 449.172 66.264C447.671 66.846 446.169 67.429 444.666 68.0053C438.331 70.4344 432.001 72.74 425.943 74.2855C419.877 75.8333 414.028 76.6338 408.684 76.0164L408.684 76.0163C400.002 75.0096 391.204 75.5367 382.227 76.4643C379.315 76.7653 376.371 77.1101 373.406 77.4575C367.273 78.1761 361.044 78.9059 354.79 79.2824L354.788 79.2825C353.417 79.3635 352.103 79.1142 350.853 78.6753C349.598 78.2345 348.354 77.5832 347.125 76.8085C344.865 75.3843 342.586 73.4979 340.325 71.6266C340.13 71.4648 339.935 71.3032 339.739 71.1419C337.271 69.1026 334.829 67.1312 332.412 65.7753C331.205 65.0981 330.029 64.5895 328.889 64.3013C327.747 64.0129 326.695 63.9583 325.715 64.1342L325.715 64.1342C319.847 65.1866 314.279 67.7393 309.018 71.2794C303.756 74.8208 298.854 79.3154 294.343 84.18C286.986 92.1137 280.744 100.945 275.692 108.092C274.545 109.715 273.459 111.251 272.435 112.67M481.311 56.5939C482.019 56.5231 482.695 56.6421 483.355 56.9839C484.022 57.3293 484.635 57.8839 485.2 58.6227C486.33 60.101 487.197 62.2159 487.988 64.5559C488.323 65.5456 488.646 66.5822 488.97 67.6215C489.402 69.0093 489.836 70.4017 490.301 71.693C491.116 73.9585 492.059 76.0135 493.343 77.359L493.347 77.3627C494.449 78.4841 495.972 79.303 498.153 78.953M272.435 112.67C272.436 112.67 272.436 112.669 272.436 112.669L271.703 112.583M272.435 112.67L271.703 112.583M272.435 112.67C267.755 119.178 264.6 125.868 262.245 132.441M271.703 112.583C266.984 119.145 263.811 125.878 261.447 132.475M261.447 132.475L262.245 132.441M261.447 132.475L262.244 132.441C262.244 132.441 262.245 132.441 262.245 132.441M498.153 78.953C498.152 78.9531 498.151 78.9533 498.15 78.9534L498.184 78.4551M498.153 78.953C498.154 78.9528 498.155 78.9527 498.156 78.9525L498.184 78.4551" stroke="#338EFF" stroke-opacity="0.5" stroke-width="1.36" stroke-miterlimit="10"/>
<path d="M410.175 71.2664C397.713 69.8021 385.065 71.2987 372.204 72.8204C365.683 73.5919 359.108 74.3699 352.475 74.7717C347.666 75.0577 342.672 70.8942 337.642 66.7005C332.206 62.1682 326.727 57.6005 321.394 58.5759C297.857 62.8224 279.569 88.6441 267.531 105.641C266.209 107.507 264.963 109.267 263.793 110.88C258.708 117.883 255.317 125.058 252.809 132.098C246.126 150.757 251.145 169.439 283.056 168.771M410.175 71.2664L409.809 71.7736M410.175 71.2664L409.811 71.7737C409.81 71.7737 409.81 71.7736 409.809 71.7736M410.175 71.2664C422.43 72.7197 437.471 66.8358 452.601 60.9166C464.535 56.248 476.524 51.5575 487.248 50.428C492.222 49.9017 494.106 56.193 495.986 62.4741C497.211 66.5631 498.434 70.6478 500.507 72.8445M409.809 71.7736C400.54 70.6845 391.149 71.2521 381.572 72.2512C378.466 72.5752 375.329 72.9463 372.169 73.3202C365.626 74.0941 358.983 74.8799 352.313 75.284L352.312 75.284C350.862 75.3703 349.471 75.1054 348.144 74.6365C346.811 74.1655 345.49 73.4692 344.182 72.64C341.776 71.1135 339.35 69.0907 336.943 67.0836C336.738 66.9128 336.533 66.7421 336.329 66.5719C333.705 64.3879 331.108 62.2751 328.538 60.8227C327.254 60.0972 326.002 59.5519 324.787 59.2432C323.571 58.9344 322.446 58.8761 321.396 59.0682L321.393 59.0688C315.115 60.2013 309.168 62.9399 303.556 66.7301C297.943 70.5215 292.719 75.3301 287.913 80.5308C280.2 88.8752 273.636 98.1432 268.278 105.708C266.953 107.579 265.701 109.346 264.524 110.969L264.524 110.969C259.479 117.917 256.106 125.048 253.607 132.064L253.606 132.064C250.286 141.335 249.892 150.566 254.234 157.382C258.562 164.174 267.597 168.585 283.266 168.257M409.809 71.7736C415.481 72.4461 421.695 71.5947 428.148 69.9377C434.591 68.283 441.328 65.8097 448.076 63.201C449.682 62.5802 451.288 61.9522 452.891 61.325C458.052 59.3058 463.19 57.2958 468.239 55.5678C474.85 53.3055 481.218 51.5597 487.145 50.9353L487.146 50.9353C487.913 50.8541 488.637 50.9809 489.338 51.3465C490.045 51.7155 490.691 52.3094 491.284 53.1003C492.468 54.6826 493.365 56.9491 494.18 59.4569C494.52 60.502 494.847 61.5946 495.175 62.6906C495.626 64.1956 496.079 65.707 496.569 67.1106C497.416 69.5395 498.403 71.7418 499.766 73.188M283.266 168.257L283.056 168.771M283.266 168.257C283.266 168.257 283.267 168.257 283.267 168.257L283.056 168.771M283.266 168.257C298.031 167.93 309.753 168.186 318.662 172.357L318.664 172.358C322.526 174.18 325.802 176.694 328.553 180.238M283.056 168.771C297.822 168.444 309.328 168.713 318.062 172.801C321.85 174.588 325.079 177.061 327.798 180.565M328.553 180.238C328.553 180.237 328.552 180.236 328.551 180.236L327.798 180.565M328.553 180.238C328.554 180.239 328.555 180.24 328.556 180.241L327.798 180.565M328.553 180.238C331.294 183.606 333.289 187.29 335.271 190.949L335.429 191.241C337.468 195.005 339.514 198.732 342.368 202.111M327.798 180.565C330.521 183.911 332.505 187.575 334.491 191.241C336.579 195.095 338.668 198.953 341.619 202.446M341.619 202.446L342.368 202.111C342.368 202.111 342.368 202.111 342.368 202.111M341.619 202.446C345.695 207.257 352.344 211.512 362.104 210.963M341.619 202.446L342.368 202.111M342.368 202.111C346.42 206.893 352.919 210.976 362.269 210.451M362.104 210.963L362.268 210.451C362.269 210.451 362.269 210.451 362.269 210.451M362.104 210.963C381.119 209.85 401.881 193.71 416.517 182.332C419.039 180.372 421.378 178.553 423.496 176.977L468.189 147.102C459.47 150.838 451.352 155.883 443.832 161.159C438.955 164.58 434.29 168.129 429.87 171.49C427.486 173.303 425.174 175.062 422.939 176.717L422.937 176.718C420.789 178.317 418.431 180.15 415.897 182.12C409.853 186.819 402.81 192.294 395.253 197.205C384.512 204.185 373.03 209.82 362.269 210.451M362.104 210.963L362.271 210.451C362.271 210.451 362.27 210.451 362.269 210.451M499.766 73.188C499.764 73.1861 499.762 73.1843 499.761 73.1824L500.507 72.8445M499.766 73.188C500.887 74.478 502.477 75.282 504.787 74.9429L504.8 74.9409C523.475 72.025 536.278 77.7996 543.701 86.4481M499.766 73.188C499.767 73.1897 499.769 73.1914 499.77 73.1931L500.507 72.8445M500.507 72.8445C501.594 74.0978 502.996 74.7123 504.834 74.4425L543.701 86.4481M543.701 86.4481C543.701 86.4482 543.701 86.4483 543.701 86.4484L544.449 86.1118M543.701 86.4481L548.542 97.8024C548.976 92.4143 546.894 88.9688 544.449 86.1118M543.701 86.4481L544.449 86.1118M543.701 86.4481L544.449 86.1118M478.182 143.521C478.181 143.522 478.179 143.522 478.178 143.523L478.32 143.982L478.187 143.52C478.185 143.52 478.184 143.521 478.182 143.521Z" stroke="#338EFF" stroke-opacity="0.5" stroke-width="1.36" stroke-miterlimit="10"/>
<path d="M244.297 131.476L245.096 131.441C241.607 141.279 241.179 151.104 245.785 158.363C250.376 165.599 259.972 170.302 276.657 169.939C276.657 169.939 276.658 169.939 276.658 169.939L276.448 170.454L244.297 131.476ZM244.297 131.476L245.096 131.441C247.74 123.983 251.355 116.36 256.717 108.92C257.986 107.171 259.339 105.26 260.774 103.232C266.435 95.2342 273.379 85.4234 281.535 76.579C286.643 71.0392 292.198 65.9122 298.168 61.8701C304.137 57.8291 310.466 54.9082 317.146 53.7074L317.149 53.7069C318.267 53.5037 319.464 53.5704 320.756 53.9045C322.047 54.2383 323.375 54.8247 324.738 55.6021C327.465 57.1583 330.224 59.4175 333.012 61.7494C333.218 61.9219 333.424 62.0947 333.631 62.2677C336.2 64.4204 338.789 66.5898 341.356 68.2248C342.745 69.109 344.147 69.8504 345.559 70.3515C346.965 70.8505 348.435 71.1308 349.963 71.0394L349.964 71.0394C357.011 70.6102 364.036 69.7808 370.96 68.9631C374.356 68.5621 377.728 68.164 381.067 67.8173C391.257 66.7591 401.255 66.1632 411.114 67.3353C417.118 68.05 423.704 67.1417 430.549 65.3734C437.384 63.6074 444.535 60.9683 451.699 58.1832C453.414 57.5165 455.129 56.8417 456.842 56.1679C462.31 54.0163 467.754 51.8742 473.101 50.0323C480.116 47.6158 486.872 45.7493 493.154 45.081L493.155 45.0809C494.152 44.9742 495.084 45.2018 495.972 45.8177C496.861 46.4341 497.633 47.3933 498.322 48.6139C499.688 51.0333 500.658 54.3505 501.639 57.7058L501.664 57.7926C502.647 61.1554 503.645 64.551 505.076 67.001C505.79 68.2251 506.632 69.2489 507.676 69.9165C508.726 70.5875 510.051 70.9394 511.72 70.6851L511.722 70.6847C531.502 67.6354 545.093 73.7689 552.912 82.9669L552.913 82.9687C555.472 85.9355 557.609 89.5593 557.161 95.1924L557.161 95.1931C556.578 102.745 551.467 111.495 544.703 119.111C537.922 126.747 529.585 133.129 522.678 136.018C515.73 138.923 509.454 139.838 503.11 140.514C502.222 140.609 501.331 140.699 500.436 140.789C494.97 141.341 489.347 141.909 483.313 143.646C471.712 146.975 461.056 152.844 451.322 159.335C444.453 163.916 437.983 168.849 431.947 173.452C429.44 175.364 427.007 177.219 424.651 178.968L424.65 178.969M244.297 131.476L424.65 178.969M424.65 178.969C422.38 180.661 419.882 182.605 417.196 184.696M424.65 178.969L417.196 184.696M417.196 184.696C410.785 189.687 403.299 195.516 395.265 200.743C383.848 208.172 371.627 214.178 360.194 214.824L417.196 184.696Z" stroke="#338EFF" stroke-opacity="0.5" stroke-width="1.36" stroke-miterlimit="10"/>
<path d="M145.232 27.768L139.264 26.1042L131.416 34.1823L137.384 35.8461L145.232 27.768Z" fill="#FF5F00"/>
<path d="M135.627 30.2451C137.223 28.602 139.666 27.4314 142.163 26.929C141.667 25.9194 140.604 25.0963 139.004 24.6503C135.215 23.5939 129.915 25.0396 127.153 27.8828C124.392 30.726 125.223 33.881 129.012 34.9374C130.612 35.3833 132.48 35.3777 134.308 35.0158C133.63 33.6465 134.031 31.8882 135.627 30.2451Z" fill="#EB001B"/>
<path d="M149.497 34.0682C146.735 36.9114 141.435 38.357 137.646 37.3006C136.047 36.8547 134.983 36.0316 134.487 35.022C137.003 34.5249 139.428 33.349 141.024 31.7059C142.62 30.0629 143.007 28.3189 142.343 26.9353C144.17 26.5734 146.039 26.5678 147.639 27.0137C151.428 28.0701 152.245 31.2393 149.497 34.0682Z" fill="#F79E1B"/>
<path d="M94.691 61.2664L97.623 62.0933L103.47 56.2464C103.829 55.8874 103.97 55.4999 104.081 55.1203C104.152 54.8935 104.283 54.7169 104.601 54.7572C104.736 54.7789 104.751 54.8981 104.727 54.9898L101.672 63.2353L106.14 64.4953L115.167 55.4685L112.235 54.6416L106.388 60.4885C106.029 60.8475 105.887 61.2351 105.776 61.6147C105.706 61.8415 105.561 62.0308 105.257 61.9777C105.122 61.9561 105.107 61.8368 105.131 61.7451L108.186 53.4997L103.718 52.2396L94.691 61.2664ZM111.284 60.1598C108.63 62.814 108.66 65.469 112.272 66.4879C114.262 67.049 116.174 66.3226 117.199 65.7898C117.341 65.7148 117.566 65.6467 117.677 65.76C117.787 65.8733 117.594 65.9996 117.266 66.1703C116.685 66.4831 116.269 66.8096 116.077 67.0019L115.846 67.2327L118.778 68.0596L123.702 63.1359L117.977 61.5215L116.233 63.2653L119.026 64.0528C118.344 64.6003 116.37 65.2765 114.555 64.7646C112.321 64.1345 112.626 62.5767 114.216 60.9867C115.806 59.3968 118.275 58.4493 120.491 59.0744C122.062 59.5174 122.302 60.374 121.813 61.2881L124.727 62.1101C126.128 60.3517 125.933 58.2419 122.32 57.223C118.306 56.091 113.887 57.5569 111.284 60.1598ZM119.967 68.395L122.899 69.222L128.746 63.375C129.105 63.016 129.246 62.6285 129.358 62.2489C129.428 62.0221 129.56 61.8455 129.877 61.8858C130.012 61.9075 130.027 62.0268 130.003 62.1185L126.948 70.3639L131.416 71.6239L140.443 62.5971L137.511 61.7702L131.664 67.6171C131.305 67.9761 131.163 68.3637 131.052 68.7433C130.982 68.9701 130.838 69.1594 130.533 69.1063C130.398 69.0847 130.383 68.9654 130.407 68.8737L133.462 60.6283L128.994 59.3682L119.967 68.395ZM148.821 64.9599C147.164 66.1694 146.709 66.5343 143.917 65.7468L142.481 67.1829L145.273 67.9704L139.375 73.8686L142.167 74.6562L151.194 65.6293L148.821 64.9599ZM158.59 67.4522C155.135 66.4776 151.271 67.9689 148.566 70.6744C145.86 73.3799 145.697 75.9147 149.153 76.8893C152.609 77.8639 156.472 76.3726 159.177 73.6671C161.883 70.9616 162.046 68.4268 158.59 67.4522ZM150.897 75.1455C149.204 74.668 149.602 73.2186 151.358 71.462C153.115 69.7053 155.153 68.7185 156.846 69.196C158.539 69.6734 158.141 71.1229 156.385 72.8795C154.628 74.6362 152.59 75.6229 150.897 75.1455ZM169.967 70.6608C166.511 69.6862 162.648 71.1775 159.943 73.883C157.237 76.5885 157.074 79.1233 160.53 80.0979C163.985 81.0725 167.848 79.5812 170.554 76.8757C173.259 74.1702 173.423 71.6354 169.967 70.6608ZM162.274 78.3541C160.581 77.8767 160.979 76.4272 162.735 74.6706C164.492 72.9139 166.53 71.9272 168.223 72.4046C169.916 72.882 169.518 74.3315 167.762 76.0881C166.005 77.8448 163.967 78.8315 162.274 78.3541ZM164.96 83.4514L166.705 83.9437C168.974 82.9726 169.557 82.7919 170.198 82.1508L172.135 80.2146L169.063 79.3483L166.806 81.605L167.592 81.8265C167.784 81.8807 167.941 81.925 168.249 81.9298C168.623 81.9365 168.805 81.9552 168.717 82.111C168.641 82.254 168.345 82.2364 167.994 82.2523C167.612 82.2761 167.314 82.3729 167.068 82.4844L164.96 83.4514ZM185.187 74.9534C181.732 73.9788 177.869 75.4702 175.163 78.1756C172.458 80.8811 172.295 83.416 175.75 84.3905C179.206 85.3651 183.069 83.8738 185.774 81.1683C188.48 78.4628 188.643 75.928 185.187 74.9534ZM177.494 82.6467C175.801 82.1693 176.199 80.7198 177.956 78.9632C179.712 77.2065 181.751 76.2198 183.444 76.6972C185.137 77.1747 184.739 78.6241 182.982 80.3808C181.225 82.1374 179.187 83.1242 177.494 82.6467ZM196.564 78.162C193.109 77.1874 189.246 78.6788 186.54 81.3843C183.835 84.0897 183.672 86.6246 187.127 87.5992C190.583 88.5737 194.446 87.0824 197.151 84.3769C199.857 81.6714 200.02 79.1366 196.564 78.162ZM188.871 85.8553C187.178 85.3779 187.576 83.9284 189.333 82.1718C191.089 80.4152 193.128 79.4284 194.821 79.9058C196.513 80.3833 196.116 81.8327 194.359 83.5894C192.602 85.346 190.564 86.3328 188.871 85.8553ZM207.941 81.3706C204.486 80.396 200.623 81.8874 197.917 84.5929C195.212 87.2983 195.048 89.8332 198.504 90.8078C201.96 91.7823 205.823 90.291 208.528 87.5855C211.234 84.88 211.397 82.3452 207.941 81.3706ZM200.248 89.0639C198.555 88.5865 198.953 87.137 200.709 85.3804C202.466 83.6238 204.504 82.637 206.197 83.1144C207.89 83.5919 207.492 85.0413 205.736 86.798C203.979 88.5546 201.941 89.5414 200.248 89.0639ZM202.934 94.1613L204.679 94.6535C206.948 93.6824 207.532 93.5017 208.173 92.8606L210.109 90.9245L207.037 90.0582L204.781 92.3149L205.566 92.5364C205.758 92.5905 205.915 92.6348 206.223 92.6396C206.597 92.6464 206.78 92.665 206.691 92.8208C206.615 92.9638 206.32 92.9462 205.968 92.9621C205.586 92.9859 205.288 93.0827 205.042 93.1942L202.934 94.1613ZM223.162 85.6632C219.706 84.6887 215.843 86.18 213.138 88.8855C210.432 91.591 210.269 94.1258 213.725 95.1004C217.18 96.075 221.043 94.5836 223.749 91.8781C226.454 89.1727 226.617 86.6378 223.162 85.6632ZM215.468 93.3566C213.775 92.8791 214.173 91.4297 215.93 89.673C217.687 87.9164 219.725 86.9296 221.418 87.4071C223.111 87.8845 222.713 89.334 220.956 91.0906C219.2 92.8472 217.161 93.834 215.468 93.3566ZM234.539 88.8719C231.083 87.8973 227.22 89.3886 224.514 92.0941C221.809 94.7996 221.646 97.3344 225.101 98.309C228.557 99.2836 232.42 97.7922 235.126 95.0867C237.831 92.3813 237.994 89.8464 234.539 88.8719ZM226.845 96.5652C225.152 96.0877 225.55 94.6383 227.307 92.8816C229.063 91.125 231.102 90.1382 232.795 90.6157C234.488 91.0931 234.09 92.5426 232.333 94.2992C230.577 96.0558 228.538 97.0426 226.845 96.5652ZM245.915 92.0805C242.46 91.1059 238.597 92.5972 235.891 95.3027C233.186 98.0082 233.023 100.543 236.478 101.518C239.934 102.492 243.797 101.001 246.502 98.2954C249.208 95.5899 249.371 93.055 245.915 92.0805ZM238.222 99.7738C236.529 99.2963 236.927 97.8469 238.684 96.0902C240.44 94.3336 242.479 93.3468 244.172 93.8243C245.865 94.3017 245.467 95.7512 243.71 97.5078C241.953 99.2645 239.915 100.251 238.222 99.7738Z" fill="white"/>
<path d="M85.9608 75.2593C86.856 75.3441 87.8405 74.9905 88.3252 74.5058C89.2945 73.5365 88.8325 72.844 87.3037 72.4128L84.2041 71.5386L78.788 76.9547L82.3693 77.9647C83.8772 78.39 85.2983 77.9623 86.1907 77.0699C86.7369 76.5237 86.7205 75.8286 85.8146 75.4055C85.7594 75.38 85.7511 75.3481 85.7896 75.3096C85.8357 75.2635 85.8902 75.2493 85.9608 75.2593ZM84.6161 72.5228L86.8361 73.1489C87.6214 73.3704 87.6208 73.814 87.2054 74.2295C86.7361 74.6988 85.8229 74.9541 84.9538 74.709L82.9851 74.1538L84.6161 72.5228ZM82.8473 77.2316L80.554 76.5849L82.3081 74.8308L84.4757 75.4421C85.4601 75.7197 85.6171 76.2473 85.1324 76.732C84.6247 77.2397 83.7164 77.4767 82.8473 77.2316ZM86.2974 77.6622C85.628 78.3315 85.9629 79.0572 86.9787 79.3436C87.9525 79.6183 89.0569 79.4268 89.9453 78.9277C90.0047 78.8951 90.0872 78.8395 90.1479 78.8862C90.1981 78.93 90.0947 78.9797 90.0045 79.043C89.7102 79.2165 89.5739 79.326 89.4277 79.4721L89.0507 79.8491L90.056 80.1326L92.3024 77.8862C93.7488 76.4398 92.9361 75.8161 91.7319 75.4765C90.4962 75.128 89.1614 75.2546 88.0728 76.1015L89.0571 76.3791C89.5151 76.0151 90.1013 75.8451 91.0437 76.1109C92.1432 76.421 92.0714 76.815 91.7588 77.1411C91.3615 77.5518 90.4723 77.1925 89.4551 76.9746C88.375 76.7391 87.1975 76.7621 86.2974 77.6622ZM91.1741 77.7258C90.1712 78.7152 88.9368 78.9293 88.0431 78.7759C87.0894 78.6154 87.0257 78.2226 87.3411 77.9072C87.7027 77.5456 88.207 77.4709 88.9255 77.5847C89.8269 77.7305 90.5571 77.9266 91.1741 77.7258ZM96.6398 74.8881L91.1006 80.4272L92.1059 80.7108L97.6451 75.1716L96.6398 74.8881ZM93.9162 79.8109C93.2469 80.4802 93.5818 81.2059 94.5975 81.4924C95.5714 81.767 96.6758 81.5755 97.5641 81.0764C97.6235 81.0439 97.706 80.9882 97.7667 81.035C97.8169 81.0787 97.7135 81.1284 97.6233 81.1918C97.3291 81.3652 97.1927 81.4747 97.0465 81.6209L96.6696 81.9979L97.6748 82.2814L99.9213 80.0349C101.368 78.5886 100.555 77.9648 99.3507 77.6252C98.1151 77.2767 96.7803 77.4033 95.6917 78.2503L96.676 78.5279C97.1339 78.1639 97.7201 77.9938 98.6626 78.2596C99.7621 78.5697 99.6903 78.9637 99.3776 79.2898C98.9804 79.7005 98.0911 79.3412 97.0739 79.1234C95.9938 78.8878 94.8163 78.9108 93.9162 79.8109ZM98.7929 79.8745C97.79 80.864 96.5557 81.0781 95.662 80.9246C94.7082 80.7641 94.6445 80.3714 94.9599 80.056C95.3215 79.6944 95.8259 79.6196 96.5443 79.7335C97.4457 79.8792 98.176 80.0753 98.7929 79.8745ZM105.507 79.3616C104.544 79.0899 103.309 79.4518 102.715 79.7774C102.664 79.8023 102.578 79.8473 102.531 79.8142C102.463 79.7752 102.581 79.7101 102.682 79.6497C102.976 79.4762 103.159 79.3206 103.32 79.159L103.582 78.8974L102.577 78.6139L98.6376 82.5529L99.6429 82.8364L101.482 80.9977C102.42 80.0591 103.835 79.7184 104.61 79.9369C105.311 80.1348 105.592 80.5393 104.676 81.4548L102.491 83.6397L103.496 83.9232L105.835 81.5845C106.989 80.4305 106.743 79.7101 105.507 79.3616ZM106.096 82.1314C104.98 83.247 105.049 84.4401 106.693 84.9037C108.17 85.3202 109.728 84.8226 110.63 84.0414L109.646 83.7638C109.105 84.1834 108.229 84.4689 107.381 84.2297C106.355 83.9403 106.37 83.1458 107.101 82.415C107.832 81.6841 109.063 81.2322 110.089 81.5216C110.937 81.7609 110.982 82.3062 110.63 82.779L111.615 83.0566C112.328 82.2223 112.221 81.2551 110.755 80.8417C109.08 80.3692 107.212 81.0159 106.096 82.1314ZM116.663 85.0425C118.063 83.6423 117.394 82.7139 116.2 82.3772C114.661 81.9431 112.767 82.494 111.583 83.6788C110.467 84.7943 110.473 85.9697 112.159 86.4452C113.531 86.8321 114.925 86.3772 115.876 85.7083L114.839 85.416C114.197 85.8167 113.579 85.9779 112.857 85.7741C111.883 85.4994 111.804 84.8263 112.362 84.1748L116.362 85.3029C116.468 85.2242 116.555 85.1502 116.663 85.0425ZM113.03 83.5741C113.707 83.0846 114.601 82.7547 115.606 83.0382C116.423 83.2686 116.518 83.8181 116.004 84.4128L113.03 83.5741Z" fill="#99C7FF"/>
<path d="M47.664 113.556C48.5592 113.641 49.5437 113.287 50.0284 112.803C50.9978 111.833 50.5358 111.141 49.0069 110.71L45.9073 109.836L40.4912 115.252L44.0725 116.262C45.5804 116.687 47.0015 116.259 47.894 115.367C48.4402 114.821 48.4237 114.125 47.5178 113.702C47.4627 113.677 47.4544 113.645 47.4928 113.607C47.539 113.56 47.5935 113.546 47.664 113.556ZM46.3194 110.82L48.5393 111.446C49.3247 111.667 49.3241 112.111 48.9086 112.526C48.4393 112.996 47.5262 113.251 46.657 113.006L44.6884 112.451L46.3194 110.82ZM44.5506 115.529L42.2573 114.882L44.0114 113.128L46.179 113.739C47.1633 114.017 47.3204 114.544 46.8357 115.029C46.3279 115.537 45.4197 115.774 44.5506 115.529ZM48.0006 115.959C47.3313 116.628 47.6662 117.354 48.6819 117.641C49.6558 117.915 50.7602 117.724 51.6485 117.225C51.708 117.192 51.7904 117.136 51.8511 117.183C51.9014 117.227 51.7979 117.277 51.7077 117.34C51.4135 117.513 51.2771 117.623 51.131 117.769L50.754 118.146L51.7592 118.43L54.0057 116.183C55.452 114.737 54.6393 114.113 53.4351 113.773C52.1995 113.425 50.8647 113.551 49.7761 114.398L50.7604 114.676C51.2183 114.312 51.8045 114.142 52.747 114.408C53.8465 114.718 53.7747 115.112 53.462 115.438C53.0648 115.849 52.1755 115.489 51.1583 115.272C50.0782 115.036 48.9007 115.059 48.0006 115.959ZM52.8773 116.023C51.8744 117.012 50.6401 117.226 49.7464 117.073C48.7926 116.912 48.7289 116.52 49.0443 116.204C49.4059 115.843 49.9103 115.768 50.6287 115.882C51.5301 116.027 52.2604 116.223 52.8773 116.023ZM59.5918 115.51C58.6284 115.238 57.3938 115.6 56.7997 115.926C56.748 115.95 56.6627 115.995 56.6153 115.962C56.5469 115.923 56.6657 115.858 56.7664 115.798C57.0607 115.624 57.2432 115.469 57.4047 115.307L57.6663 115.046L56.661 114.762L52.7221 118.701L53.7273 118.985L55.566 117.146C56.5046 116.207 57.9193 115.867 58.6942 116.085C59.3958 116.283 59.676 116.687 58.7605 117.603L56.5756 119.788L57.5808 120.071L59.9196 117.733C61.0736 116.579 60.8274 115.858 59.5918 115.51ZM63.1554 121.644L62.902 118.702L66.9269 117.657L65.6494 117.297L61.4573 118.482C61.3847 118.501 61.2889 118.543 61.2569 118.494C61.2248 118.446 61.3415 118.41 61.4114 118.38C61.73 118.263 61.9236 118.15 62.1929 117.881L65.0087 115.065L64.0034 114.781L58.4642 120.321L59.4695 120.604L60.8389 119.235L61.8198 118.979L61.9407 121.301L63.1554 121.644Z" fill="#99C7FF"/>
<path d="M62.755 96.5048L60.0115 95.731L54.5954 101.147L55.6844 101.454L57.7154 99.4232L59.5375 99.9371C61.3176 100.439 62.8785 99.9522 63.8479 98.9829C64.8173 98.0135 64.8284 97.0895 62.755 96.5048ZM60.204 99.2571L58.3925 98.7462L60.4235 96.7152L62.2351 97.2261C63.2508 97.5126 63.3974 98.0372 62.7589 98.6757C62.1819 99.2527 61.2198 99.5436 60.204 99.2571ZM64.8654 100.167C64.797 100.128 64.89 100.076 64.9724 100.02C65.2975 99.8158 65.4415 99.6986 65.6031 99.5371L65.8647 99.2755L64.8594 98.992L60.9204 102.931L61.9257 103.214L63.8105 101.33C64.8414 100.299 65.6995 100.018 67.1828 100.535L67.9367 99.781C66.5859 99.4 66.0053 99.5913 65.0393 100.128C64.9799 100.16 64.91 100.19 64.8654 100.167ZM70.4911 100.501C68.868 100.044 66.9787 100.684 65.8632 101.8C64.7476 102.916 64.806 104.106 66.4291 104.563C68.0521 105.021 69.9415 104.38 71.057 103.265C72.1726 102.149 72.1142 100.959 70.4911 100.501ZM67.1061 103.886C66.1008 103.603 66.1222 102.83 66.8684 102.084C67.6147 101.337 68.8088 100.895 69.8141 101.178C70.8194 101.462 70.798 102.235 70.0518 102.981C69.3055 103.728 68.1113 104.17 67.1061 103.886ZM72.9841 101.283L70.9718 105.766L72.4797 106.191L78.3455 102.795L77.2564 102.488L72.7088 105.21C72.5152 105.323 72.3866 105.425 72.2558 105.556C72.2096 105.602 72.1453 105.653 72.072 105.632C71.9987 105.612 72.0421 105.555 72.0882 105.509C72.219 105.378 72.3058 105.264 72.3737 105.116L74.0731 101.591L72.9841 101.283ZM79.4181 102.151L80.5072 102.458L81.3688 101.597L80.2798 101.289L79.4181 102.151ZM74.7825 106.84L75.7877 107.124L79.7267 103.185L78.7215 102.901L74.7825 106.84ZM86.2257 102.966L84.3178 104.874C84.1716 105.021 84.0771 105.142 83.9994 105.327C83.9692 105.397 83.9551 105.492 83.8378 105.489C83.7309 105.488 83.7765 105.402 83.7891 105.376C84.0791 104.777 83.7237 104.233 82.865 103.991C81.4723 103.598 79.6368 104.185 78.4674 105.355C77.298 106.524 77.4102 107.66 78.8029 108.053C79.6407 108.29 80.6912 108.152 81.4965 107.669C81.53 107.649 81.623 107.596 81.6704 107.629C81.7521 107.682 81.6305 107.736 81.5375 107.789C81.2845 107.934 81.1558 108.036 81.0173 108.175L80.6865 108.506L81.6918 108.789L87.231 103.25L86.2257 102.966ZM79.6894 107.435C78.6422 107.14 78.7418 106.369 79.4727 105.638C80.2035 104.907 81.3503 104.432 82.3974 104.727C83.3503 104.996 83.3869 105.805 82.656 106.536C81.9252 107.267 80.6423 107.704 79.6894 107.435ZM84.4993 109.66C85.4627 109.931 86.6707 109.542 87.2913 109.244C87.343 109.219 87.4283 109.174 87.4757 109.207C87.5364 109.254 87.4253 109.311 87.3247 109.372C87.0304 109.545 86.8479 109.701 86.6863 109.862L86.4248 110.124L87.43 110.407L91.369 106.468L90.3637 106.185L88.525 108.024C87.5864 108.962 86.1717 109.303 85.3968 109.084C84.6952 108.887 84.4151 108.482 85.3306 107.567L87.5155 105.382L86.5102 105.098L84.1714 107.437C83.0175 108.591 83.2636 109.311 84.4993 109.66ZM89.5153 109.24C88.6983 110.124 88.9639 110.919 90.4194 111.329C91.8855 111.743 93.291 111.478 94.0911 110.678C94.7373 110.032 94.333 109.524 93.0033 109.001C91.9333 108.581 91.9036 108.355 92.1575 108.101C92.4191 107.84 92.9871 107.674 93.8353 107.914C94.7777 108.179 94.6003 108.652 94.3779 108.915L95.3622 109.192C96.0275 108.433 95.8638 107.657 94.5129 107.276C93.0469 106.863 91.6908 107.279 91.0984 107.872C90.5829 108.387 90.5534 108.98 91.8489 109.484C92.9818 109.922 93.3243 110.156 92.9704 110.51C92.7165 110.764 92.1338 110.984 91.1076 110.695C90.0604 110.4 90.21 109.821 90.4996 109.518L89.5153 109.24ZM103.947 111.347C104.843 111.432 105.827 111.079 106.312 110.594C107.281 109.625 106.819 108.932 105.29 108.501L102.191 107.627L96.7747 113.043L100.356 114.053C101.864 114.478 103.285 114.051 104.177 113.158C104.724 112.612 104.707 111.917 103.801 111.494C103.746 111.468 103.738 111.436 103.776 111.398C103.822 111.352 103.877 111.337 103.947 111.347ZM102.603 108.611L104.823 109.237C105.608 109.459 105.608 109.902 105.192 110.318C104.723 110.787 103.81 111.042 102.94 110.797L100.972 110.242L102.603 108.611ZM100.834 113.32L98.5407 112.673L100.295 110.919L102.462 111.53C103.447 111.808 103.604 112.335 103.119 112.82C102.611 113.328 101.703 113.565 100.834 113.32ZM104.284 113.75C103.615 114.42 103.95 115.145 104.965 115.432C105.939 115.706 107.044 115.515 107.932 115.016C107.991 114.983 108.074 114.928 108.135 114.974C108.185 115.018 108.081 115.068 107.991 115.131C107.697 115.305 107.561 115.414 107.414 115.56L107.037 115.937L108.043 116.221L110.289 113.974C111.735 112.528 110.923 111.904 109.719 111.565C108.483 111.216 107.148 111.343 106.06 112.19L107.044 112.467C107.502 112.103 108.088 111.933 109.03 112.199C110.13 112.509 110.058 112.903 109.745 113.229C109.348 113.64 108.459 113.281 107.442 113.063C106.362 112.827 105.184 112.85 104.284 113.75ZM109.161 113.814C108.158 114.803 106.924 115.018 106.03 114.864C105.076 114.704 105.012 114.311 105.328 113.995C105.689 113.634 106.194 113.559 106.912 113.673C107.814 113.819 108.544 114.015 109.161 113.814ZM115.875 113.301C114.912 113.029 113.677 113.391 113.083 113.717C113.031 113.742 112.946 113.787 112.899 113.754C112.83 113.715 112.949 113.65 113.05 113.589C113.344 113.416 113.527 113.26 113.688 113.098L113.95 112.837L112.944 112.553L109.006 116.492L110.011 116.776L111.849 114.937C112.788 113.999 114.203 113.658 114.978 113.876C115.679 114.074 115.959 114.479 115.044 115.394L112.859 117.579L113.864 117.863L116.203 115.524C117.357 114.37 117.111 113.65 115.875 113.301ZM119.439 119.435L119.185 116.493L123.21 115.449L121.933 115.088L117.741 116.273C117.668 116.292 117.572 116.334 117.54 116.286C117.508 116.237 117.625 116.201 117.695 116.171C118.013 116.054 118.207 115.941 118.476 115.672L121.292 112.856L120.287 112.573L114.748 118.112L115.753 118.395L117.122 117.026L118.103 116.77L118.224 119.092L119.439 119.435Z" fill="white"/>
<path d="M132.996 141.341L134.21 141.683L136.946 135.511L135.27 135.039L127.173 139.699L128.388 140.041L130.278 138.917L133.691 139.88L132.996 141.341ZM131.258 138.326L135.119 136.022C135.261 135.934 135.396 135.853 135.547 135.728C135.604 135.685 135.65 135.639 135.723 135.659C135.797 135.68 135.75 135.726 135.715 135.775C135.605 135.912 135.555 136.016 135.496 136.128L134.065 139.117L131.258 138.326ZM136.141 139.703C135.025 140.818 135.094 142.011 136.738 142.475C138.214 142.891 139.772 142.394 140.675 141.613L139.69 141.335C139.15 141.755 138.274 142.04 137.425 141.801C136.399 141.511 136.415 140.717 137.146 139.986C137.877 139.255 139.107 138.803 140.133 139.093C140.982 139.332 141.027 139.877 140.675 140.35L141.659 140.628C142.373 139.793 142.266 138.826 140.8 138.413C139.125 137.94 137.256 138.587 136.141 139.703ZM141.627 141.25C140.512 142.366 140.58 143.559 142.224 144.022C143.701 144.439 145.259 143.941 146.161 143.16L145.177 142.882C144.636 143.302 143.76 143.587 142.912 143.348C141.886 143.059 141.901 142.264 142.632 141.533C143.363 140.803 144.594 140.351 145.62 140.64C146.468 140.879 146.513 141.425 146.161 141.898L147.146 142.175C147.859 141.341 147.752 140.374 146.286 139.96C144.611 139.488 142.743 140.134 141.627 141.25ZM151.45 142.324L152.096 141.678L150.589 141.252L151.696 140.145L150.691 139.861L149.583 140.969L148.578 140.685L147.932 141.332L148.937 141.615L146.798 143.754C145.944 144.608 146.168 145.056 147.278 145.369L148.157 145.617L148.804 144.97L148.008 144.746C147.421 144.581 147.434 144.407 147.881 143.96L149.942 141.899L151.45 142.324ZM149.942 144.858L148.957 145.842L150.298 146.22L151.283 145.236L149.942 144.858Z" fill="#99C7FF"/>
<path d="M150.106 121.061C148.242 120.536 146.073 121.443 144.488 123.028C142.903 124.613 142.703 126.075 144.567 126.601C146.431 127.126 148.6 126.219 150.185 124.634C151.77 123.05 151.97 121.587 150.106 121.061ZM145.244 125.924C144.019 125.578 144.263 124.542 145.494 123.311C146.724 122.08 148.204 121.393 149.429 121.739C150.654 122.084 150.41 123.12 149.18 124.351C147.949 125.582 146.469 126.269 145.244 125.924ZM155.457 126.043C155.41 126.009 155.323 125.975 155.385 125.914C155.447 125.852 155.549 125.871 155.616 125.87C156.44 125.866 157.261 125.555 157.745 125.07C158.553 124.262 158.302 123.373 156.679 122.915C155.055 122.457 153.527 122.845 152.719 123.653C152.234 124.137 152.235 124.66 152.663 125.037C152.7 125.068 152.787 125.102 152.725 125.163C152.664 125.225 152.562 125.206 152.484 125.204C151.451 125.189 150.529 125.521 149.952 126.098C149.075 126.975 149.37 127.955 151.139 128.454C152.909 128.953 154.604 128.534 155.481 127.657C156.058 127.08 156.085 126.476 155.457 126.043ZM153.686 123.975C154.155 123.505 154.985 123.266 156.032 123.561C157.079 123.857 157.171 124.356 156.702 124.825C156.232 125.294 155.402 125.534 154.355 125.238C153.308 124.943 153.217 124.444 153.686 123.975ZM151.786 127.808C150.592 127.471 150.457 126.881 150.988 126.35C151.519 125.819 152.588 125.569 153.709 125.885C154.829 126.201 155.037 126.812 154.506 127.343C153.976 127.873 152.979 128.145 151.786 127.808ZM156.238 128.353L159.924 129.393L158.785 130.532L159.79 130.815L160.929 129.677L161.934 129.96L162.58 129.314L161.575 129.03L165.206 125.399L163.656 124.962L157.007 127.584L156.238 128.353ZM157.692 128.054L163.631 125.645C163.693 125.623 163.755 125.601 163.795 125.642C163.838 125.694 163.757 125.72 163.657 125.781C163.437 125.906 163.309 126.008 163.17 126.146L160.57 128.747L158.601 128.192C158.235 128.088 157.998 128.11 157.751 128.169C157.679 128.188 157.58 128.219 157.556 128.163C157.534 128.118 157.622 128.083 157.692 128.054ZM163.064 130.279L166.75 131.318L165.611 132.457L166.616 132.74L167.755 131.602L168.76 131.885L169.406 131.239L168.401 130.955L172.032 127.324L170.483 126.887L163.833 129.509L163.064 130.279ZM164.518 129.979L170.457 127.57C170.519 127.548 170.582 127.527 170.621 127.567C170.664 127.619 170.583 127.645 170.483 127.706C170.263 127.831 170.135 127.933 169.996 128.072L167.396 130.672L165.427 130.117C165.061 130.013 164.824 130.035 164.577 130.094C164.505 130.113 164.406 130.144 164.382 130.088C164.36 130.043 164.448 130.008 164.518 129.979ZM175.772 131.772C175.725 131.739 175.638 131.704 175.7 131.643C175.761 131.581 175.863 131.6 175.931 131.6C176.754 131.595 177.575 131.284 178.06 130.8C178.868 129.992 178.616 129.102 176.993 128.644C175.37 128.187 173.842 128.574 173.034 129.382C172.549 129.867 172.55 130.39 172.978 130.767C173.015 130.797 173.102 130.831 173.04 130.893C172.978 130.954 172.877 130.935 172.798 130.933C171.766 130.918 170.844 131.25 170.267 131.827C169.39 132.704 169.684 133.685 171.454 134.184C173.224 134.683 174.919 134.263 175.796 133.386C176.373 132.809 176.399 132.205 175.772 131.772ZM174.001 129.704C174.47 129.235 175.3 128.995 176.347 129.291C177.394 129.586 177.486 130.085 177.016 130.555C176.547 131.024 175.717 131.263 174.67 130.968C173.623 130.673 173.531 130.173 174.001 129.704ZM172.1 133.537C170.907 133.201 170.772 132.61 171.303 132.08C171.834 131.549 172.903 131.298 174.024 131.614C175.144 131.93 175.352 132.541 174.821 133.072C174.29 133.603 173.294 133.874 172.1 133.537ZM176.552 134.083L180.238 135.122L179.1 136.261L180.105 136.545L181.244 135.406L182.249 135.689L182.895 135.043L181.89 134.76L185.521 131.128L183.971 130.691L177.322 133.314L176.552 134.083ZM178.007 133.783L183.946 131.375C184.008 131.353 184.07 131.331 184.11 131.372C184.152 131.423 184.072 131.45 183.971 131.51C183.752 131.636 183.623 131.737 183.485 131.876L180.884 134.476L178.916 133.921C178.549 133.818 178.313 133.84 178.066 133.898C177.993 133.917 177.895 133.949 177.87 133.892C177.849 133.847 177.937 133.813 178.007 133.783ZM184.494 134.892C182.894 136.493 183.278 137.518 184.901 137.976C186.472 138.419 188.371 137.889 189.478 136.782C190.517 135.743 190.256 134.782 188.77 134.362C187.838 134.1 186.987 134.185 186.349 134.38C186.313 134.389 186.206 134.429 186.169 134.398C186.106 134.341 186.288 134.294 186.399 134.236C186.58 134.149 186.729 134.053 186.778 134.018C187.532 133.412 188.632 132.795 189.868 133.143C190.863 133.424 190.774 133.942 190.532 134.278L191.496 134.549C192.207 133.744 192 132.877 190.534 132.463C188.409 131.864 186.394 132.992 184.494 134.892ZM185.053 135.622C185.722 134.953 186.807 134.647 187.875 134.948C188.932 135.247 189.135 135.836 188.404 136.567C187.742 137.229 186.594 137.585 185.536 137.287C184.468 136.986 184.391 136.284 185.053 135.622ZM190.513 137.192C189.336 138.369 189.641 139.313 191.389 139.806C193.034 140.27 194.728 139.85 195.613 138.965C196.19 138.388 196.067 137.732 195.277 137.342C195.232 137.319 195.148 137.296 195.21 137.234C195.271 137.173 195.363 137.189 195.412 137.193C196.365 137.274 197.43 136.933 197.969 136.395C198.885 135.479 198.437 134.692 196.897 134.258C195.316 133.812 193.65 134.269 192.65 135.27L193.635 135.547C194.05 135.132 194.953 134.578 196.252 134.944C197.393 135.266 197.279 135.796 196.91 136.165C196.325 136.75 194.864 136.801 193.397 136.348L192.782 136.964C194.394 137.379 195.277 138.013 194.616 138.674C194.269 139.02 193.334 139.486 192.046 139.123C190.6 138.716 191.044 137.923 191.498 137.469L190.513 137.192ZM199.715 137.933C199.679 137.942 199.573 137.981 199.548 137.925C199.521 137.858 199.654 137.846 199.765 137.789C199.98 137.682 200.186 137.543 200.312 137.43L201.443 136.487L204.825 137.441L205.502 136.764L201.303 135.58L197.723 138.515L198.708 138.793C199.313 138.51 200.018 138.275 200.942 138.545C202.149 138.895 201.997 139.612 201.42 140.189C200.812 140.797 199.738 141.293 198.492 140.941C197.142 140.56 197.479 139.807 197.925 139.361L196.94 139.083C195.917 140.107 196.046 141.119 197.815 141.618C199.732 142.159 201.44 141.457 202.471 140.426C204.417 138.48 201.708 137.39 199.715 137.933ZM203.491 140.852C202.314 142.029 202.618 142.973 204.367 143.466C206.011 143.93 207.706 143.51 208.59 142.625C209.167 142.048 209.045 141.392 208.254 141.002C208.209 140.979 208.126 140.956 208.187 140.894C208.249 140.833 208.34 140.848 208.39 140.853C209.342 140.934 210.408 140.593 210.946 140.055C211.862 139.139 211.414 138.352 209.875 137.918C208.293 137.472 206.628 137.929 205.628 138.93L206.612 139.207C207.027 138.792 207.931 138.238 209.229 138.604C210.37 138.926 210.256 139.456 209.887 139.825C209.302 140.41 207.841 140.461 206.375 140.008L205.759 140.624C207.371 141.039 208.254 141.673 207.593 142.334C207.247 142.68 206.311 143.146 205.023 142.783C203.578 142.376 204.021 141.583 204.475 141.129L203.491 140.852Z" fill="white"/>
<path d="M240.454 146.621L238.084 148.99L234.398 147.951L236.768 145.581L235.679 145.274L230.263 150.69L231.352 150.997L233.721 148.628L237.407 149.667L235.038 152.037L236.127 152.344L241.543 146.928L240.454 146.621ZM240.531 148.537L238.638 153.25L238.229 153.47C237.788 153.71 237.521 153.803 236.725 153.578L236.243 153.442L235.597 154.088L236.288 154.283C237.251 154.555 238.06 154.418 239.16 153.801L245.893 150.049L244.804 149.741L240.503 152.257C240.302 152.378 240.124 152.515 239.993 152.646C239.947 152.692 239.893 152.746 239.809 152.722C239.726 152.698 239.78 152.645 239.826 152.598C239.957 152.468 240.092 152.318 240.157 152.159L241.62 148.844L240.531 148.537ZM248.963 153.37C250.363 151.97 249.694 151.042 248.5 150.705C246.961 150.271 245.067 150.822 243.882 152.007C242.767 153.122 242.773 154.297 244.459 154.773C245.831 155.16 247.225 154.705 248.176 154.036L247.139 153.744C246.497 154.144 245.879 154.306 245.157 154.102C244.183 153.827 244.104 153.154 244.662 152.503L248.662 153.631C248.767 153.552 248.855 153.478 248.963 153.37ZM245.33 151.902C246.007 151.412 246.901 151.082 247.906 151.366C248.723 151.596 248.818 152.146 248.304 152.741L245.33 151.902ZM261.07 152.435L258.701 154.805L255.015 153.765L257.384 151.396L256.295 151.089L250.879 156.505L251.968 156.812L254.338 154.442L258.024 155.482L255.654 157.852L256.743 158.159L262.159 152.743L261.07 152.435ZM264.594 157.779C265.994 156.379 265.325 155.45 264.131 155.113C262.592 154.679 260.698 155.23 259.514 156.415C258.398 157.531 258.404 158.706 260.09 159.181C261.462 159.568 262.856 159.113 263.807 158.445L262.77 158.152C262.128 158.553 261.51 158.714 260.788 158.51C259.814 158.236 259.735 157.563 260.293 156.911L264.293 158.039C264.399 157.96 264.486 157.886 264.594 157.779ZM260.961 156.31C261.638 155.821 262.532 155.491 263.537 155.774C264.354 156.005 264.449 156.554 263.935 157.149L260.961 156.31ZM269.337 157.489L269.983 156.843L268.475 156.417L269.583 155.31L268.578 155.026L267.47 156.134L266.465 155.85L265.818 156.497L266.824 156.78L264.685 158.919C263.831 159.773 264.054 160.221 265.164 160.534L266.044 160.782L266.69 160.135L265.894 159.911C265.308 159.746 265.321 159.572 265.767 159.126L267.829 157.064L269.337 157.489ZM273.389 160.259C274.789 158.859 274.12 157.931 272.926 157.594C271.387 157.16 269.493 157.711 268.308 158.895C267.193 160.011 267.199 161.186 268.885 161.662C270.257 162.049 271.651 161.594 272.602 160.925L271.565 160.633C270.923 161.033 270.305 161.194 269.583 160.991C268.609 160.716 268.53 160.043 269.088 159.391L273.088 160.52C273.193 160.441 273.281 160.367 273.389 160.259ZM269.756 158.791C270.433 158.301 271.327 157.971 272.332 158.255C273.149 158.485 273.244 159.035 272.73 159.629L269.756 158.791ZM275.266 158.333L273.372 163.046L272.964 163.266C272.522 163.506 272.255 163.599 271.459 163.374L270.978 163.238L270.331 163.885L271.022 164.079C271.986 164.351 272.794 164.214 273.894 163.597L280.627 159.845L279.538 159.538L275.237 162.053C275.036 162.174 274.858 162.311 274.728 162.442C274.681 162.488 274.628 162.542 274.544 162.518C274.46 162.494 274.514 162.441 274.56 162.394C274.691 162.264 274.827 162.115 274.892 161.955L276.355 158.64L275.266 158.333ZM283.697 163.166C285.097 161.766 284.428 160.838 283.234 160.501C281.695 160.067 279.801 160.618 278.617 161.803C277.501 162.918 277.507 164.094 279.193 164.569C280.565 164.956 281.959 164.501 282.91 163.832L281.874 163.54C281.231 163.941 280.614 164.102 279.891 163.898C278.917 163.623 278.839 162.95 279.396 162.299L283.396 163.427C283.502 163.348 283.589 163.274 283.697 163.166ZM280.064 161.698C280.741 161.208 281.635 160.879 282.64 161.162C283.457 161.392 283.552 161.942 283.038 162.537L280.064 161.698ZM289.175 162.177C288.212 161.905 286.977 162.267 286.383 162.592C286.331 162.617 286.246 162.662 286.198 162.629C286.13 162.59 286.249 162.525 286.35 162.465C286.644 162.291 286.826 162.136 286.988 161.974L287.249 161.712L286.244 161.429L282.305 165.368L283.31 165.651L285.149 163.813C286.088 162.874 287.502 162.533 288.277 162.752C288.979 162.95 289.259 163.354 288.344 164.27L286.159 166.455L287.164 166.738L289.503 164.399C290.657 163.245 290.411 162.525 289.175 162.177Z" fill="white"/>
<path d="M215.941 165.012L217.03 165.319L221.154 161.195C221.377 160.972 221.53 160.779 221.603 160.572C221.63 160.491 221.658 160.45 221.754 160.447C221.812 160.444 221.815 160.494 221.802 160.52L220.297 166.24L221.973 166.713L227.389 161.297L226.3 160.989L222.176 165.113C221.953 165.336 221.8 165.53 221.728 165.736C221.7 165.817 221.665 165.866 221.576 165.861C221.516 165.854 221.526 165.817 221.528 165.788L223.033 160.068L221.357 159.596L215.941 165.012ZM223.87 165.837C223.201 166.507 223.536 167.232 224.551 167.519C225.525 167.793 226.63 167.602 227.518 167.103C227.577 167.07 227.66 167.015 227.72 167.061C227.771 167.105 227.667 167.155 227.577 167.218C227.283 167.392 227.146 167.501 227 167.647L226.623 168.024L227.629 168.308L229.875 166.061C231.321 164.615 230.509 163.991 229.304 163.652C228.069 163.303 226.734 163.43 225.645 164.277L226.63 164.554C227.088 164.19 227.674 164.02 228.616 164.286C229.716 164.596 229.644 164.99 229.331 165.316C228.934 165.727 228.045 165.368 227.028 165.15C225.948 164.914 224.77 164.937 223.87 165.837ZM228.747 165.901C227.744 166.89 226.509 167.104 225.616 166.951C224.662 166.791 224.598 166.398 224.914 166.082C225.275 165.721 225.78 165.646 226.498 165.76C227.399 165.906 228.13 166.102 228.747 165.901ZM238.309 166.191C237.65 166.005 236.805 166.152 235.984 166.61C235.924 166.643 235.88 166.66 235.807 166.64C235.744 166.622 235.736 166.59 235.764 166.548C236.092 166.019 235.911 165.515 235.231 165.323C234.498 165.116 233.526 165.296 232.726 165.761C232.684 165.788 232.607 165.826 232.549 165.79C232.491 165.754 232.576 165.709 232.659 165.653C232.976 165.456 233.128 165.332 233.274 165.185L233.536 164.924L232.53 164.64L228.591 168.579L229.597 168.863L231.658 166.801C232.443 166.016 233.6 165.692 234.249 165.875C234.93 166.067 234.874 166.485 234.259 167.1L231.859 169.501L232.864 169.784L235.095 167.553C235.818 166.83 236.836 166.604 237.422 166.77C238.072 166.953 238.234 167.314 237.618 167.93L235.126 170.422L236.131 170.706L238.531 168.305C239.747 167.09 239.315 166.475 238.309 166.191ZM243.809 170.277C245.209 168.877 244.54 167.949 243.346 167.612C241.807 167.178 239.914 167.729 238.729 168.913C237.613 170.029 237.619 171.204 239.305 171.68C240.677 172.067 242.072 171.612 243.023 170.943L241.986 170.651C241.343 171.051 240.726 171.213 240.003 171.009C239.029 170.734 238.951 170.061 239.508 169.409L243.508 170.538C243.614 170.459 243.701 170.385 243.809 170.277ZM240.176 168.809C240.854 168.319 241.747 167.989 242.753 168.273C243.569 168.503 243.664 169.053 243.15 169.647L240.176 168.809Z" fill="#99C7FF"/>
<g filter="url(#filter1_b_1_7532)">
<rect width="268" height="52" rx="26" transform="matrix(0.962455 0.27144 -0.707107 0.707107 57.5293 83.4602)" fill="#2F2F2F" fill-opacity="0.04"/>
</g>
</g>
</g>
<defs>
<filter id="filter0_d_1_7532" x="0.754517" y="0" width="454.514" height="223.569" filterUnits="userSpaceOnUse" color-interpolation-filters="sRGB">
<feFlood flood-opacity="0" result="BackgroundImageFix"/>
<feColorMatrix in="SourceAlpha" type="matrix" values="0 0 0 0 0 0 0 0 0 0 0 0 0 0 0 0 0 0 127 0" result="hardAlpha"/>
<feOffset dy="4"/>
<feComposite in2="hardAlpha" operator="out"/>
<feColorMatrix type="matrix" values="0 0 0 0 0.6 0 0 0 0 0.788235 0 0 0 0 1 0 0 0 1 0"/>
<feBlend mode="normal" in2="BackgroundImageFix" result="effect1_dropShadow_1_7532"/>
<feBlend mode="normal" in="SourceGraphic" in2="effect1_dropShadow_1_7532" result="shape"/>
</filter>
<filter id="filter1_b_1_7532" x="25.1149" y="81.2043" width="285.997" height="114.027" filterUnits="userSpaceOnUse" color-interpolation-filters="sRGB">
<feFlood flood-opacity="0" result="BackgroundImageFix"/>
<feGaussianBlur in="BackgroundImage" stdDeviation="4"/>
<feComposite in2="SourceAlpha" operator="in" result="effect1_backgroundBlur_1_7532"/>
<feBlend mode="normal" in="SourceGraphic" in2="effect1_backgroundBlur_1_7532" result="shape"/>
</filter>
<clipPath id="clip0_1_7532">
<rect width="340" height="180" rx="7.25333" transform="matrix(0.962455 0.27144 -0.707107 0.707107 128.034 0)" fill="white"/>
</clipPath>
</defs>
</svg>
