<svg width="17" height="8" viewBox="0 0 17 8" fill="none" xmlns="http://www.w3.org/2000/svg">
<path d="M2.31195 1.05276H0.398613V5.74609H2.31195C3.91861 5.74609 4.66528 4.63943 4.66528 3.39943C4.66528 2.15943 3.95861 1.05276 2.31195 1.05276ZM2.33195 4.78609H1.51861V2.01276H2.33195C3.14528 2.01276 3.54528 2.69276 3.54528 3.39943C3.54528 4.10609 3.14528 4.78609 2.33195 4.78609ZM4.95929 1.79943H6.02596V0.946094H4.95929V1.79943ZM4.95929 5.74609H6.02596V2.22609H4.95929V5.74609ZM6.26627 3.90609C6.26627 4.93276 6.83294 5.69276 7.7996 5.69276C8.32627 5.69276 8.68627 5.50609 8.90627 5.10609C8.93294 5.05943 8.96627 4.99943 9.0396 5.02609C9.12627 5.05943 9.0796 5.15943 9.01294 5.27943C8.9596 5.37276 8.93294 5.46609 8.93294 5.56609C8.93294 5.99276 8.78627 6.33276 8.15294 6.33276C7.6596 6.33276 7.46627 6.16609 7.41294 5.90609H6.37294C6.47294 6.69943 7.04627 7.13276 8.15294 7.13276C9.26627 7.13276 9.9996 6.61276 9.9996 5.50609V2.22609H8.93294V2.33276C8.93294 2.43276 8.9596 2.53276 9.00627 2.62609C9.0596 2.73943 9.11294 2.85276 9.01294 2.87943C8.95294 2.89276 8.92627 2.83276 8.90627 2.79943C8.68627 2.39943 8.33294 2.11943 7.7996 2.11943C6.83294 2.11943 6.26627 2.87943 6.26627 3.90609ZM8.10627 4.78609C7.57294 4.78609 7.33294 4.37943 7.33294 3.90609C7.33294 3.43276 7.57294 3.02609 8.10627 3.02609C8.61294 3.02609 8.93294 3.43276 8.93294 3.90609C8.93294 4.37943 8.61294 4.78609 8.10627 4.78609ZM10.4543 1.79943H11.521V0.946094H10.4543V1.79943ZM10.4543 5.74609H11.521V2.22609H10.4543V5.74609ZM13.5747 1.69276H14.2147V0.839427H13.228C12.5213 0.839427 12.188 1.07276 12.188 1.91943V2.22609H11.6547V3.07943H12.188V5.74609H13.2547V3.07943H14.2147V2.22609H13.2547V2.03943C13.2547 1.70609 13.268 1.69276 13.5747 1.69276ZM16.8052 3.07943V2.22609H15.8452V1.26609H14.7785V2.22609H14.1385V3.07943H14.7785V4.66609C14.7785 5.51276 15.1118 5.74609 15.8185 5.74609H16.8052V4.89276H16.1652C15.8585 4.89276 15.8452 4.87943 15.8452 4.54609V3.07943H16.8052Z" fill="white"/>
</svg>
