<svg width="25" height="25" viewBox="0 0 25 25" fill="none" xmlns="http://www.w3.org/2000/svg">
<path d="M23.54 0.396484H1.46003C0.92903 0.396484 0.500031 0.825484 0.500031 1.35648V23.4365C0.500031 23.9675 0.92903 24.3965 1.46003 24.3965H23.54C24.071 24.3965 24.5 23.9675 24.5 23.4365V1.35648C24.5 0.825484 24.071 0.396484 23.54 0.396484ZM22.58 22.4765H17.057V15.1025H20.177L20.645 11.4815H17.057V9.16848C17.057 8.11848 17.348 7.40448 18.851 7.40448H20.768V4.16448C20.435 4.11948 19.298 4.02048 17.972 4.02048C15.206 4.02048 13.313 5.70948 13.313 8.80848V11.4785H10.187V15.0995H13.316V22.4765H2.42003V2.31648H22.58V22.4765Z" fill="#8A91A8"/>
</svg>
