<svg width="272" height="663" viewBox="0 0 272 663" fill="none" xmlns="http://www.w3.org/2000/svg">
<rect x="-7.62939e-06" y="-0.000244141" width="272" height="663" rx="12" fill="#F5F7FA"/>
<path d="M32.3359 108.072C32.3359 110.858 34.0999 113.112 37.2079 113.112C40.2739 113.112 41.6179 110.942 41.7439 109.304H39.8539C39.7279 110.27 38.9159 111.432 37.2359 111.432C35.3319 111.432 34.2399 109.934 34.2399 108.072C34.2399 106.21 35.3319 104.712 37.2359 104.712C38.9159 104.712 39.7279 105.874 39.8539 106.84H41.7439C41.6179 105.202 40.2739 103.032 37.2079 103.032C34.0999 103.032 32.3359 105.286 32.3359 108.072ZM42.1321 110.97C42.1321 112.216 43.3221 113.112 44.7081 113.112C46.0241 113.112 46.8361 112.524 47.2561 111.502C47.2841 111.432 47.3401 111.292 47.4801 111.348C47.6061 111.404 47.5501 111.544 47.4941 111.67C47.3681 111.908 47.2841 112.146 47.2841 112.482V113H49.0761V108.912C49.0761 106.056 47.5501 105.496 45.8561 105.496C44.2041 105.496 42.6081 106.21 42.3561 108.072H44.1201C44.2181 107.47 44.5401 106.952 45.8001 106.952C47.0741 106.952 47.2701 107.512 47.2841 108.016C47.2981 108.702 46.1361 108.576 44.8201 108.646C43.3361 108.73 42.1321 109.332 42.1321 110.97ZM47.2841 109.192C47.2701 111.026 46.2901 111.642 45.3381 111.768C44.5121 111.88 43.9241 111.488 43.9241 110.872C43.9241 110.214 44.3581 109.92 45.1281 109.836C46.1921 109.724 46.8641 109.654 47.2841 109.192ZM54.5047 107.176V105.608H52.4887V103.592H50.6967V105.608H49.3527V107.176H50.6967V110.732C50.6967 112.51 51.3967 113 52.8807 113H54.5047V111.432H53.2587C52.5027 111.432 52.4887 111.362 52.4887 110.55V107.176H54.5047ZM61.9471 109.206C61.9471 106.518 60.1691 105.496 58.4611 105.496C56.2071 105.496 54.7791 106.994 54.7791 109.304C54.7791 111.502 56.0951 113.112 58.4891 113.112C60.4631 113.112 61.4991 111.95 61.8211 110.424H60.0011C59.7911 111.082 59.3571 111.544 58.5031 111.544C57.3831 111.544 56.6551 110.872 56.5291 109.752H61.9051C61.9331 109.542 61.9471 109.402 61.9471 109.206ZM56.5991 108.52C56.7811 107.638 57.2991 106.952 58.5171 106.952C59.5531 106.952 60.0851 107.624 60.1551 108.52H56.5991ZM62.3331 109.136C62.3331 111.124 63.6351 112.776 65.5531 112.776C66.6731 112.776 67.4151 112.216 67.8911 111.404C67.9191 111.348 67.9891 111.222 68.1151 111.278C68.2551 111.348 68.1571 111.488 68.0871 111.628C67.9751 111.838 67.9331 112.034 67.9331 112.286C67.9331 113.644 67.3031 114.344 66.0431 114.344C64.8531 114.344 64.4051 113.84 64.3211 113.168H62.5571C62.6831 114.554 63.7471 115.8 66.0711 115.8C68.3391 115.8 69.7251 114.582 69.7251 112.216V105.608H67.9331V105.944C67.9331 106.21 67.9751 106.406 68.0871 106.616C68.1571 106.756 68.2551 106.938 68.1151 106.994C67.9891 107.05 67.9051 106.868 67.8911 106.84C67.4151 106.07 66.7011 105.496 65.5531 105.496C63.6351 105.496 62.3331 107.148 62.3331 109.136ZM65.9731 111.152C64.7131 111.152 64.1251 110.228 64.1251 109.136C64.1251 108.044 64.7131 107.12 65.9731 107.12C67.1491 107.12 67.9331 108.044 67.9331 109.136C67.9331 110.228 67.1491 111.152 65.9731 111.152ZM74.048 105.496C71.738 105.496 70.352 107.204 70.352 109.304C70.352 111.404 71.738 113.112 74.048 113.112C76.358 113.112 77.744 111.404 77.744 109.304C77.744 107.204 76.358 105.496 74.048 105.496ZM74.048 111.488C72.83 111.488 72.144 110.508 72.144 109.304C72.144 108.1 72.83 107.12 74.048 107.12C75.266 107.12 75.952 108.1 75.952 109.304C75.952 110.508 75.266 111.488 74.048 111.488ZM80.0196 107.19C79.8516 107.162 79.8936 106.994 79.9496 106.868C80.0756 106.616 80.1596 106.336 80.1596 106.014V105.608H78.3676V113H80.1596V109.794C80.1596 107.918 80.7616 107.176 82.8476 107.316V105.496C81.0416 105.496 80.6356 106.028 80.1876 107.05C80.1736 107.092 80.1036 107.204 80.0196 107.19ZM83.5837 104.712H85.3757V102.92H83.5837V104.712ZM83.5837 113H85.3757V105.608H83.5837V113ZM93.1682 109.206C93.1682 106.518 91.3902 105.496 89.6822 105.496C87.4282 105.496 86.0002 106.994 86.0002 109.304C86.0002 111.502 87.3162 113.112 89.7102 113.112C91.6842 113.112 92.7202 111.95 93.0422 110.424H91.2222C91.0122 111.082 90.5782 111.544 89.7242 111.544C88.6042 111.544 87.8762 110.872 87.7502 109.752H93.1262C93.1542 109.542 93.1682 109.402 93.1682 109.206ZM87.8202 108.52C88.0022 107.638 88.5202 106.952 89.7382 106.952C90.7742 106.952 91.3062 107.624 91.3762 108.52H87.8202ZM93.5542 110.508C93.6242 112.09 94.7582 113.112 96.9002 113.112C99.0842 113.112 100.274 112.23 100.274 110.69C100.274 109.206 98.9722 108.618 97.1662 108.436C95.7242 108.296 95.5702 108.002 95.5702 107.652C95.5702 107.232 95.8782 106.896 96.9002 106.896C97.9362 106.896 98.2442 107.414 98.2862 107.876H100.05C99.9522 106.532 98.8882 105.496 96.9422 105.496C94.8422 105.496 93.7782 106.546 93.7782 107.75C93.7782 108.576 94.0722 109.752 96.3402 110.032C97.7542 110.2 98.4822 110.284 98.4822 110.83C98.4822 111.32 98.1042 111.712 96.9562 111.712C95.6542 111.712 95.3322 111.054 95.3182 110.508H93.5542Z" fill="#000429"/>
<path d="M75.7279 147.824V146.144H68.7839V156H75.7279V154.32H70.6879V151.856H74.8319V150.288H70.6879V147.824H75.7279ZM76.3411 152.304C76.3411 154.502 77.8251 156.112 80.0791 156.112C82.1651 156.112 83.3831 154.712 83.5091 153.2H81.7451C81.6331 153.9 81.0871 154.488 80.0791 154.488C78.8471 154.488 78.1331 153.592 78.1331 152.304C78.1331 151.016 78.8471 150.12 80.0791 150.12C81.0871 150.12 81.6331 150.708 81.7451 151.408H83.5091C83.3831 149.896 82.1511 148.496 80.0791 148.496C77.7831 148.496 76.3411 150.106 76.3411 152.304ZM87.6458 148.496C85.3358 148.496 83.9498 150.204 83.9498 152.304C83.9498 154.404 85.3358 156.112 87.6458 156.112C89.9558 156.112 91.3418 154.404 91.3418 152.304C91.3418 150.204 89.9558 148.496 87.6458 148.496ZM87.6458 154.488C86.4278 154.488 85.7418 153.508 85.7418 152.304C85.7418 151.1 86.4278 150.12 87.6458 150.12C88.8638 150.12 89.5498 151.1 89.5498 152.304C89.5498 153.508 88.8638 154.488 87.6458 154.488ZM100.057 148.496C99.1754 148.496 98.4334 149.028 98.0134 149.966C97.9714 150.064 97.9014 150.092 97.8174 150.092C97.7054 150.092 97.6354 150.05 97.6074 149.952C97.4114 149.098 96.7954 148.496 95.8294 148.496C94.8494 148.496 94.1634 149.098 93.7854 150.064C93.7574 150.134 93.7014 150.26 93.5614 150.218C93.4214 150.176 93.4634 150.036 93.5194 149.91C93.6594 149.602 93.7574 149.392 93.7574 149.028V148.608H91.9654V156H93.7574V152.584C93.7574 151.156 94.4014 150.12 95.2694 150.12C96.1794 150.12 96.3334 150.736 96.3334 151.856V156H98.1254V152.276C98.1254 150.96 98.7274 150.12 99.5114 150.12C100.379 150.12 100.701 150.568 100.701 151.688V156H102.493V151.408C102.493 149.196 101.345 148.496 100.057 148.496ZM111.535 148.496C110.653 148.496 109.911 149.028 109.491 149.966C109.449 150.064 109.379 150.092 109.295 150.092C109.183 150.092 109.113 150.05 109.085 149.952C108.889 149.098 108.273 148.496 107.307 148.496C106.327 148.496 105.641 149.098 105.263 150.064C105.235 150.134 105.179 150.26 105.039 150.218C104.899 150.176 104.941 150.036 104.997 149.91C105.137 149.602 105.235 149.392 105.235 149.028V148.608H103.443V156H105.235V152.584C105.235 151.156 105.879 150.12 106.747 150.12C107.657 150.12 107.811 150.736 107.811 151.856V156H109.603V152.276C109.603 150.96 110.205 150.12 110.989 150.12C111.857 150.12 112.179 150.568 112.179 151.688V156H113.971V151.408C113.971 149.196 112.823 148.496 111.535 148.496ZM121.75 152.206C121.75 149.518 119.972 148.496 118.264 148.496C116.01 148.496 114.582 149.994 114.582 152.304C114.582 154.502 115.898 156.112 118.292 156.112C120.266 156.112 121.302 154.95 121.624 153.424H119.804C119.594 154.082 119.16 154.544 118.306 154.544C117.186 154.544 116.458 153.872 116.332 152.752H121.708C121.736 152.542 121.75 152.402 121.75 152.206ZM116.402 151.52C116.584 150.638 117.102 149.952 118.32 149.952C119.356 149.952 119.888 150.624 119.958 151.52H116.402ZM124.018 150.19C123.85 150.162 123.892 149.994 123.948 149.868C124.074 149.616 124.158 149.336 124.158 149.014V148.608H122.366V156H124.158V152.794C124.158 150.918 124.76 150.176 126.846 150.316V148.496C125.04 148.496 124.634 149.028 124.186 150.05C124.172 150.092 124.102 150.204 124.018 150.19ZM126.792 152.304C126.792 154.502 128.276 156.112 130.53 156.112C132.616 156.112 133.834 154.712 133.96 153.2H132.196C132.084 153.9 131.538 154.488 130.53 154.488C129.298 154.488 128.584 153.592 128.584 152.304C128.584 151.016 129.298 150.12 130.53 150.12C131.538 150.12 132.084 150.708 132.196 151.408H133.96C133.834 149.896 132.602 148.496 130.53 148.496C128.234 148.496 126.792 150.106 126.792 152.304ZM141.569 152.206C141.569 149.518 139.791 148.496 138.083 148.496C135.829 148.496 134.401 149.994 134.401 152.304C134.401 154.502 135.717 156.112 138.111 156.112C140.085 156.112 141.121 154.95 141.443 153.424H139.623C139.413 154.082 138.979 154.544 138.125 154.544C137.005 154.544 136.277 153.872 136.151 152.752H141.527C141.555 152.542 141.569 152.402 141.569 152.206ZM136.221 151.52C136.403 150.638 136.921 149.952 138.139 149.952C139.175 149.952 139.707 150.624 139.777 151.52H136.221Z" fill="#8A91A8"/>
<rect x="32.9999" y="141" width="18" height="18" rx="4" fill="#1676F3"/>
<path d="M38.2803 149.775C37.9874 149.482 37.5125 149.482 37.2196 149.775C36.9267 150.068 36.9267 150.542 37.2196 150.835L39.942 153.558C40.2349 153.851 40.7097 153.851 41.0026 153.558L47.4469 147.113C47.7398 146.82 47.7398 146.346 47.4469 146.053C47.1541 145.76 46.6792 145.76 46.3863 146.053L40.4723 151.967L38.2803 149.775Z" fill="white"/>
<path d="M71.7879 189.144H67.7839V199H69.6879V195.416H72.0119C74.3359 195.416 75.6239 193.96 75.6239 192.28C75.6239 190.6 74.5599 189.144 71.7879 189.144ZM71.9979 193.848H69.6879V190.824H71.9979C73.0759 190.824 73.7199 191.384 73.7199 192.336C73.7199 193.19 73.0759 193.848 71.9979 193.848ZM79.4883 191.496C77.1783 191.496 75.7923 193.204 75.7923 195.304C75.7923 197.404 77.1783 199.112 79.4883 199.112C81.7983 199.112 83.1843 197.404 83.1843 195.304C83.1843 193.204 81.7983 191.496 79.4883 191.496ZM79.4883 197.488C78.2703 197.488 77.5843 196.508 77.5843 195.304C77.5843 194.1 78.2703 193.12 79.4883 193.12C80.7063 193.12 81.3923 194.1 81.3923 195.304C81.3923 196.508 80.7063 197.488 79.4883 197.488ZM85.5999 191.608H83.8079V201.688H85.5999V198.678C85.5999 198.398 85.5299 198.174 85.4039 197.922C85.3339 197.782 85.2779 197.642 85.4319 197.586C85.5579 197.544 85.6139 197.684 85.6419 197.726C86.0899 198.538 86.8599 199.112 87.9799 199.112C89.8979 199.112 91.1999 197.432 91.1999 195.304C91.1999 193.176 89.8979 191.496 87.9799 191.496C86.8319 191.496 86.0899 192.084 85.6419 192.868C85.6139 192.924 85.5299 193.106 85.3899 193.036C85.2499 192.966 85.3479 192.798 85.4039 192.658C85.5299 192.406 85.5999 192.182 85.5999 191.888V191.608ZM87.5599 197.488C86.3839 197.488 85.5999 196.48 85.5999 195.304C85.5999 194.128 86.3839 193.12 87.5599 193.12C88.8199 193.12 89.4079 194.128 89.4079 195.304C89.4079 196.48 88.8199 197.488 87.5599 197.488ZM94.4815 199.112C95.7695 199.112 96.5815 198.062 96.9455 197.334C97.0015 197.222 97.0435 197.138 97.1555 197.166C97.3375 197.208 97.2535 197.404 97.1975 197.53C97.0715 197.824 96.9735 198.09 96.9735 198.538V199H98.7655V191.608H96.9735V194.618C96.9735 196.326 96.0215 197.488 94.9855 197.488C94.0475 197.488 93.6135 197.026 93.6135 195.36V191.608H91.8215V195.976C91.8215 198.076 92.8855 199.112 94.4815 199.112ZM99.9413 188.92V199H101.733V188.92H99.9413ZM102.467 196.97C102.467 198.216 103.657 199.112 105.043 199.112C106.359 199.112 107.171 198.524 107.591 197.502C107.619 197.432 107.675 197.292 107.815 197.348C107.941 197.404 107.885 197.544 107.829 197.67C107.703 197.908 107.619 198.146 107.619 198.482V199H109.411V194.912C109.411 192.056 107.885 191.496 106.191 191.496C104.539 191.496 102.943 192.21 102.691 194.072H104.455C104.553 193.47 104.875 192.952 106.135 192.952C107.409 192.952 107.605 193.512 107.619 194.016C107.633 194.702 106.471 194.576 105.155 194.646C103.671 194.73 102.467 195.332 102.467 196.97ZM107.619 195.192C107.605 197.026 106.625 197.642 105.673 197.768C104.847 197.88 104.259 197.488 104.259 196.872C104.259 196.214 104.693 195.92 105.463 195.836C106.527 195.724 107.199 195.654 107.619 195.192ZM112.135 193.19C111.967 193.162 112.009 192.994 112.065 192.868C112.191 192.616 112.275 192.336 112.275 192.014V191.608H110.483V199H112.275V195.794C112.275 193.918 112.877 193.176 114.963 193.316V191.496C113.157 191.496 112.751 192.028 112.303 193.05C112.289 193.092 112.219 193.204 112.135 193.19Z" fill="#8A91A8"/>
<rect x="31.9999" y="184" width="18" height="18" rx="4" stroke="#DCDEE5" stroke-width="1.5"/>
<path d="M74.6159 241H76.7439L73.1599 231.144H70.4719L66.8879 241H69.0159L69.7719 238.76H73.8599L74.6159 241ZM70.2899 237.192L71.4239 233.818C71.5499 233.426 71.6339 232.908 71.6479 232.418C71.6479 232.334 71.6759 232.222 71.8159 232.222C71.9559 232.222 71.9839 232.334 71.9839 232.418C71.9979 232.908 72.0819 233.426 72.2079 233.818L73.3419 237.192H70.2899ZM77.1426 232.712H78.9346V230.92H77.1426V232.712ZM77.1426 241H78.9346V233.608H77.1426V241ZM81.7685 235.19C81.6005 235.162 81.6425 234.994 81.6985 234.868C81.8245 234.616 81.9085 234.336 81.9085 234.014V233.608H80.1165V241H81.9085V237.794C81.9085 235.918 82.5105 235.176 84.5965 235.316V233.496C82.7905 233.496 82.3845 234.028 81.9365 235.05C81.9225 235.092 81.8525 235.204 81.7685 235.19ZM89.922 235.176V233.608H87.906V231.592H86.114V233.608H84.77V235.176H86.114V238.732C86.114 240.51 86.814 241 88.298 241H89.922V239.432H88.676C87.92 239.432 87.906 239.362 87.906 238.55V235.176H89.922ZM90.8768 232.712H92.6688V230.92H90.8768V232.712ZM90.8768 241H92.6688V233.608H90.8768V241ZM101.943 233.496C101.061 233.496 100.319 234.028 99.8987 234.966C99.8567 235.064 99.7867 235.092 99.7027 235.092C99.5907 235.092 99.5207 235.05 99.4927 234.952C99.2967 234.098 98.6807 233.496 97.7147 233.496C96.7347 233.496 96.0487 234.098 95.6707 235.064C95.6427 235.134 95.5867 235.26 95.4467 235.218C95.3067 235.176 95.3487 235.036 95.4047 234.91C95.5447 234.602 95.6427 234.392 95.6427 234.028V233.608H93.8507V241H95.6427V237.584C95.6427 236.156 96.2867 235.12 97.1547 235.12C98.0647 235.12 98.2187 235.736 98.2187 236.856V241H100.011V237.276C100.011 235.96 100.613 235.12 101.397 235.12C102.265 235.12 102.587 235.568 102.587 236.688V241H104.379V236.408C104.379 234.196 103.231 233.496 101.943 233.496ZM112.158 237.206C112.158 234.518 110.38 233.496 108.672 233.496C106.418 233.496 104.99 234.994 104.99 237.304C104.99 239.502 106.306 241.112 108.7 241.112C110.674 241.112 111.71 239.95 112.032 238.424H110.212C110.002 239.082 109.568 239.544 108.714 239.544C107.594 239.544 106.866 238.872 106.74 237.752H112.116C112.144 237.542 112.158 237.402 112.158 237.206ZM106.81 236.52C106.992 235.638 107.51 234.952 108.728 234.952C109.764 234.952 110.296 235.624 110.366 236.52H106.81ZM123.572 233.552C123.656 232.026 122.228 231.018 120.66 231.032C118.854 231.046 117.524 232.068 117.524 233.468C117.524 234.378 117.972 235.148 118.35 235.722C117.496 236.24 116.74 237.08 116.74 238.256C116.74 240.146 118.616 241.112 120.17 241.112C121.136 241.112 122.088 240.846 122.872 240.356C123.684 240.748 124.608 241 125.63 241H126.372V239.432H125.77C125.154 239.432 124.594 239.334 124.09 239.152C124.412 238.648 124.692 238.032 124.86 237.36H126.372V235.848H123.488C123.488 236.828 123.138 237.752 122.69 238.396C121.864 237.794 121.234 237.038 120.772 236.38C122.648 235.54 123.516 234.784 123.572 233.552ZM119.316 233.58C119.33 232.88 119.876 232.544 120.604 232.544C121.108 232.544 121.822 232.838 121.78 233.468C121.738 233.888 121.584 234.21 120.562 234.714C120.184 234.882 120.072 234.98 119.862 235.12C119.736 235.204 119.638 235.274 119.54 235.176C119.456 235.092 119.512 235.008 119.568 234.91C119.638 234.798 119.554 234.602 119.414 234.196C119.344 234 119.316 233.79 119.316 233.58ZM118.532 238.382C118.532 237.976 118.602 237.696 118.882 237.43C119.022 237.29 119.176 237.164 119.316 237.01C119.414 236.912 119.498 236.856 119.596 236.926C119.68 236.996 119.652 237.08 119.582 237.192C119.484 237.332 119.61 237.598 119.904 237.948C120.198 238.298 120.534 238.662 120.926 239.012C121.066 239.152 121.234 239.278 121.514 239.46C121.626 239.516 121.696 239.614 121.626 239.712C121.556 239.824 121.402 239.768 121.206 239.656C121.052 239.572 120.898 239.558 120.716 239.572C120.562 239.586 120.408 239.6 120.254 239.6C119.05 239.6 118.532 238.844 118.532 238.382ZM137.908 232.824V231.144H130.964V241H137.908V239.32H132.868V236.856H137.012V235.288H132.868V232.824H137.908ZM138.97 230.92V241H140.762V230.92H138.97ZM148.554 237.206C148.554 234.518 146.776 233.496 145.068 233.496C142.814 233.496 141.386 234.994 141.386 237.304C141.386 239.502 142.702 241.112 145.096 241.112C147.07 241.112 148.106 239.95 148.428 238.424H146.608C146.398 239.082 145.964 239.544 145.11 239.544C143.99 239.544 143.262 238.872 143.136 237.752H148.512C148.54 237.542 148.554 237.402 148.554 237.206ZM143.206 236.52C143.388 235.638 143.906 234.952 145.124 234.952C146.16 234.952 146.692 235.624 146.762 236.52H143.206ZM148.995 237.304C148.995 239.502 150.479 241.112 152.733 241.112C154.819 241.112 156.037 239.712 156.163 238.2H154.399C154.287 238.9 153.741 239.488 152.733 239.488C151.501 239.488 150.787 238.592 150.787 237.304C150.787 236.016 151.501 235.12 152.733 235.12C153.741 235.12 154.287 235.708 154.399 236.408H156.163C156.037 234.896 154.805 233.496 152.733 233.496C150.437 233.496 148.995 235.106 148.995 237.304ZM161.135 235.176V233.608H159.119V231.592H157.327V233.608H155.983V235.176H157.327V238.732C157.327 240.51 158.027 241 159.511 241H161.135V239.432H159.889C159.133 239.432 159.119 239.362 159.119 238.55V235.176H161.135ZM163.742 235.19C163.574 235.162 163.616 234.994 163.672 234.868C163.798 234.616 163.882 234.336 163.882 234.014V233.608H162.09V241H163.882V237.794C163.882 235.918 164.484 235.176 166.57 235.316V233.496C164.764 233.496 164.358 234.028 163.91 235.05C163.896 235.092 163.826 235.204 163.742 235.19ZM167.306 232.712H169.098V230.92H167.306V232.712ZM167.306 241H169.098V233.608H167.306V241ZM169.722 237.304C169.722 239.502 171.206 241.112 173.46 241.112C175.546 241.112 176.764 239.712 176.89 238.2H175.126C175.014 238.9 174.468 239.488 173.46 239.488C172.228 239.488 171.514 238.592 171.514 237.304C171.514 236.016 172.228 235.12 173.46 235.12C174.468 235.12 175.014 235.708 175.126 236.408H176.89C176.764 234.896 175.532 233.496 173.46 233.496C171.164 233.496 169.722 235.106 169.722 237.304ZM177.506 232.712H179.298V230.92H177.506V232.712ZM177.506 241H179.298V233.608H177.506V241ZM184.85 235.176V233.608H182.834V231.592H181.042V233.608H179.698V235.176H181.042V238.732C181.042 240.51 181.742 241 183.226 241H184.85V239.432H183.604C182.848 239.432 182.834 239.362 182.834 238.55V235.176H184.85ZM185.018 233.608L187.902 241.098L187.748 241.546C187.552 242.12 187.342 242.12 186.278 242.12H185.662V243.688H187.006C188.294 243.688 188.994 243.17 189.498 241.854L192.634 233.608H190.73L189.148 238.382C189.05 238.676 189.022 238.956 189.022 239.222C189.022 239.334 189.008 239.46 188.854 239.46C188.7 239.46 188.686 239.32 188.686 239.222C188.686 238.942 188.672 238.676 188.574 238.382L186.922 233.608H185.018Z" fill="#8A91A8"/>
<rect x="31.9999" y="226" width="18" height="18" rx="4" stroke="#DCDEE5" stroke-width="1.5"/>
<path d="M67.3359 278.072C67.3359 280.858 69.0299 283.112 71.8719 283.112C73.5519 283.112 74.4619 281.852 74.7559 281.138C74.7839 281.068 74.8539 280.998 74.9659 281.04C75.0499 281.068 75.0779 281.152 75.0359 281.264C74.8399 281.74 74.7839 282.034 74.7839 282.356V283H76.7439V277.848H72.3759V279.416H74.7699C74.4759 280.508 73.6779 281.432 72.2499 281.432C70.2479 281.432 69.2399 279.906 69.2399 278.072C69.2399 276.21 70.3039 274.712 72.3199 274.712C73.8319 274.712 74.5459 275.538 74.8539 276.504H76.7439C76.4359 274.782 75.0779 273.032 72.2919 273.032C69.0719 273.032 67.3359 275.286 67.3359 278.072ZM77.4739 280.97C77.4739 282.216 78.6639 283.112 80.0499 283.112C81.3659 283.112 82.1779 282.524 82.5979 281.502C82.6259 281.432 82.6819 281.292 82.8219 281.348C82.9479 281.404 82.8919 281.544 82.8359 281.67C82.7099 281.908 82.6259 282.146 82.6259 282.482V283H84.4179V278.912C84.4179 276.056 82.8919 275.496 81.1979 275.496C79.5459 275.496 77.9499 276.21 77.6979 278.072H79.4619C79.5599 277.47 79.8819 276.952 81.1419 276.952C82.4159 276.952 82.6119 277.512 82.6259 278.016C82.6399 278.702 81.4779 278.576 80.1619 278.646C78.6779 278.73 77.4739 279.332 77.4739 280.97ZM82.6259 279.192C82.6119 281.026 81.6319 281.642 80.6799 281.768C79.8539 281.88 79.2659 281.488 79.2659 280.872C79.2659 280.214 79.6999 279.92 80.4699 279.836C81.5339 279.724 82.2059 279.654 82.6259 279.192ZM93.5816 275.496C92.6996 275.496 91.9576 276.028 91.5376 276.966C91.4956 277.064 91.4256 277.092 91.3416 277.092C91.2296 277.092 91.1596 277.05 91.1316 276.952C90.9356 276.098 90.3196 275.496 89.3536 275.496C88.3736 275.496 87.6876 276.098 87.3096 277.064C87.2816 277.134 87.2256 277.26 87.0856 277.218C86.9456 277.176 86.9876 277.036 87.0436 276.91C87.1836 276.602 87.2816 276.392 87.2816 276.028V275.608H85.4896V283H87.2816V279.584C87.2816 278.156 87.9256 277.12 88.7936 277.12C89.7036 277.12 89.8576 277.736 89.8576 278.856V283H91.6496V279.276C91.6496 277.96 92.2516 277.12 93.0356 277.12C93.9036 277.12 94.2256 277.568 94.2256 278.688V283H96.0176V278.408C96.0176 276.196 94.8696 275.496 93.5816 275.496ZM96.9674 274.712H98.7594V272.92H96.9674V274.712ZM96.9674 283H98.7594V275.608H96.9674V283ZM104.225 275.496C102.937 275.496 102.097 276.532 101.761 277.274C101.705 277.386 101.663 277.47 101.551 277.442C101.369 277.4 101.453 277.204 101.509 277.078C101.649 276.784 101.733 276.518 101.733 276.07V275.608H99.9413V283H101.733V279.99C101.733 278.282 102.685 277.12 103.721 277.12C104.659 277.12 105.093 277.582 105.093 279.248V283H106.885V278.632C106.885 276.532 105.821 275.496 104.225 275.496ZM107.498 279.136C107.498 281.124 108.8 282.776 110.718 282.776C111.838 282.776 112.58 282.216 113.056 281.404C113.084 281.348 113.154 281.222 113.28 281.278C113.42 281.348 113.322 281.488 113.252 281.628C113.14 281.838 113.098 282.034 113.098 282.286C113.098 283.644 112.468 284.344 111.208 284.344C110.018 284.344 109.57 283.84 109.486 283.168H107.722C107.848 284.554 108.912 285.8 111.236 285.8C113.504 285.8 114.89 284.582 114.89 282.216V275.608H113.098V275.944C113.098 276.21 113.14 276.406 113.252 276.616C113.322 276.756 113.42 276.938 113.28 276.994C113.154 277.05 113.07 276.868 113.056 276.84C112.58 276.07 111.866 275.496 110.718 275.496C108.8 275.496 107.498 277.148 107.498 279.136ZM111.138 281.152C109.878 281.152 109.29 280.228 109.29 279.136C109.29 278.044 109.878 277.12 111.138 277.12C112.314 277.12 113.098 278.044 113.098 279.136C113.098 280.228 112.314 281.152 111.138 281.152Z" fill="#8A91A8"/>
<rect x="31.9999" y="268" width="18" height="18" rx="4" stroke="#DCDEE5" stroke-width="1.5"/>
<path d="M74.7279 316.824V315.144H67.7839V325H74.7279V323.32H69.6879V320.856H73.8319V319.288H69.6879V316.824H74.7279ZM75.7891 314.92V325H77.5811V314.92H75.7891ZM85.3736 321.206C85.3736 318.518 83.5956 317.496 81.8876 317.496C79.6336 317.496 78.2056 318.994 78.2056 321.304C78.2056 323.502 79.5216 325.112 81.9156 325.112C83.8896 325.112 84.9256 323.95 85.2476 322.424H83.4276C83.2176 323.082 82.7836 323.544 81.9296 323.544C80.8096 323.544 80.0816 322.872 79.9556 321.752H85.3316C85.3596 321.542 85.3736 321.402 85.3736 321.206ZM80.0256 320.52C80.2076 319.638 80.7256 318.952 81.9436 318.952C82.9796 318.952 83.5116 319.624 83.5816 320.52H80.0256ZM85.8143 321.304C85.8143 323.502 87.2983 325.112 89.5523 325.112C91.6383 325.112 92.8563 323.712 92.9823 322.2H91.2183C91.1063 322.9 90.5603 323.488 89.5523 323.488C88.3203 323.488 87.6063 322.592 87.6063 321.304C87.6063 320.016 88.3203 319.12 89.5523 319.12C90.5603 319.12 91.1063 319.708 91.2183 320.408H92.9823C92.8563 318.896 91.6243 317.496 89.5523 317.496C87.2563 317.496 85.8143 319.106 85.8143 321.304ZM97.9545 319.176V317.608H95.9385V315.592H94.1465V317.608H92.8025V319.176H94.1465V322.732C94.1465 324.51 94.8465 325 96.3305 325H97.9545V323.432H96.7085C95.9525 323.432 95.9385 323.362 95.9385 322.55V319.176H97.9545ZM100.561 319.19C100.393 319.162 100.435 318.994 100.491 318.868C100.617 318.616 100.701 318.336 100.701 318.014V317.608H98.9093V325H100.701V321.794C100.701 319.918 101.303 319.176 103.389 319.316V317.496C101.583 317.496 101.177 318.028 100.729 319.05C100.715 319.092 100.645 319.204 100.561 319.19ZM107.032 317.496C104.722 317.496 103.336 319.204 103.336 321.304C103.336 323.404 104.722 325.112 107.032 325.112C109.342 325.112 110.728 323.404 110.728 321.304C110.728 319.204 109.342 317.496 107.032 317.496ZM107.032 323.488C105.814 323.488 105.128 322.508 105.128 321.304C105.128 320.1 105.814 319.12 107.032 319.12C108.25 319.12 108.936 320.1 108.936 321.304C108.936 322.508 108.25 323.488 107.032 323.488ZM115.635 317.496C114.347 317.496 113.507 318.532 113.171 319.274C113.115 319.386 113.073 319.47 112.961 319.442C112.779 319.4 112.863 319.204 112.919 319.078C113.059 318.784 113.143 318.518 113.143 318.07V317.608H111.351V325H113.143V321.99C113.143 320.282 114.095 319.12 115.131 319.12C116.069 319.12 116.503 319.582 116.503 321.248V325H118.295V320.632C118.295 318.532 117.231 317.496 115.635 317.496ZM119.247 316.712H121.039V314.92H119.247V316.712ZM119.247 325H121.039V317.608H119.247V325ZM121.664 321.304C121.664 323.502 123.148 325.112 125.402 325.112C127.488 325.112 128.706 323.712 128.832 322.2H127.068C126.956 322.9 126.41 323.488 125.402 323.488C124.17 323.488 123.456 322.592 123.456 321.304C123.456 320.016 124.17 319.12 125.402 319.12C126.41 319.12 126.956 319.708 127.068 320.408H128.832C128.706 318.896 127.474 317.496 125.402 317.496C123.106 317.496 121.664 319.106 121.664 321.304ZM129.218 322.508C129.288 324.09 130.422 325.112 132.564 325.112C134.748 325.112 135.938 324.23 135.938 322.69C135.938 321.206 134.636 320.618 132.83 320.436C131.388 320.296 131.234 320.002 131.234 319.652C131.234 319.232 131.542 318.896 132.564 318.896C133.6 318.896 133.908 319.414 133.95 319.876H135.714C135.616 318.532 134.552 317.496 132.606 317.496C130.506 317.496 129.442 318.546 129.442 319.75C129.442 320.576 129.736 321.752 132.004 322.032C133.418 322.2 134.146 322.284 134.146 322.83C134.146 323.32 133.768 323.712 132.62 323.712C131.318 323.712 130.996 323.054 130.982 322.508H129.218Z" fill="#8A91A8"/>
<rect x="31.9999" y="310" width="18" height="18" rx="4" stroke="#DCDEE5" stroke-width="1.5"/>
<path d="M67.336 362.072C67.336 364.858 69.1 367.112 72.208 367.112C75.274 367.112 76.618 364.942 76.744 363.304H74.854C74.728 364.27 73.916 365.432 72.236 365.432C70.332 365.432 69.24 363.934 69.24 362.072C69.24 360.21 70.332 358.712 72.236 358.712C73.916 358.712 74.728 359.874 74.854 360.84H76.744C76.618 359.202 75.274 357.032 72.208 357.032C69.1 357.032 67.336 359.286 67.336 362.072ZM77.5801 356.92V367H79.3721V356.92H77.5801ZM83.6927 359.496C81.3827 359.496 79.9967 361.204 79.9967 363.304C79.9967 365.404 81.3827 367.112 83.6927 367.112C86.0027 367.112 87.3887 365.404 87.3887 363.304C87.3887 361.204 86.0027 359.496 83.6927 359.496ZM83.6927 365.488C82.4747 365.488 81.7887 364.508 81.7887 363.304C81.7887 362.1 82.4747 361.12 83.6927 361.12C84.9107 361.12 85.5967 362.1 85.5967 363.304C85.5967 364.508 84.9107 365.488 83.6927 365.488ZM92.3693 361.176V359.608H90.3533V357.592H88.5613V359.608H87.2173V361.176H88.5613V364.732C88.5613 366.51 89.2613 367 90.7453 367H92.3693V365.432H91.1233C90.3673 365.432 90.3533 365.362 90.3533 364.55V361.176H92.3693ZM97.6081 359.496C96.3201 359.496 95.4801 360.532 95.1441 361.274C95.0881 361.386 95.0461 361.47 94.9341 361.442C94.7521 361.4 94.8361 361.204 94.8921 361.078C95.0321 360.784 95.1161 360.518 95.1161 360.07V356.92H93.3241V367H95.1161V363.99C95.1161 362.282 96.0681 361.12 97.1041 361.12C98.0421 361.12 98.4761 361.582 98.4761 363.248V367H100.268V362.632C100.268 360.532 99.2041 359.496 97.6081 359.496ZM108.049 363.206C108.049 360.518 106.271 359.496 104.563 359.496C102.309 359.496 100.881 360.994 100.881 363.304C100.881 365.502 102.197 367.112 104.591 367.112C106.565 367.112 107.601 365.95 107.923 364.424H106.103C105.893 365.082 105.459 365.544 104.605 365.544C103.485 365.544 102.757 364.872 102.631 363.752H108.007C108.035 363.542 108.049 363.402 108.049 363.206ZM102.701 362.52C102.883 361.638 103.401 360.952 104.619 360.952C105.655 360.952 106.187 361.624 106.257 362.52H102.701ZM108.435 364.508C108.505 366.09 109.639 367.112 111.781 367.112C113.965 367.112 115.155 366.23 115.155 364.69C115.155 363.206 113.853 362.618 112.047 362.436C110.605 362.296 110.451 362.002 110.451 361.652C110.451 361.232 110.759 360.896 111.781 360.896C112.817 360.896 113.125 361.414 113.167 361.876H114.931C114.833 360.532 113.769 359.496 111.823 359.496C109.723 359.496 108.659 360.546 108.659 361.75C108.659 362.576 108.953 363.752 111.221 364.032C112.635 364.2 113.363 364.284 113.363 364.83C113.363 365.32 112.985 365.712 111.837 365.712C110.535 365.712 110.213 365.054 110.199 364.508H108.435ZM119.524 364.97C119.524 366.216 120.714 367.112 122.1 367.112C123.416 367.112 124.228 366.524 124.648 365.502C124.676 365.432 124.732 365.292 124.872 365.348C124.998 365.404 124.942 365.544 124.886 365.67C124.76 365.908 124.676 366.146 124.676 366.482V367H126.468V362.912C126.468 360.056 124.942 359.496 123.248 359.496C121.596 359.496 120 360.21 119.748 362.072H121.512C121.61 361.47 121.932 360.952 123.192 360.952C124.466 360.952 124.662 361.512 124.676 362.016C124.69 362.702 123.528 362.576 122.212 362.646C120.728 362.73 119.524 363.332 119.524 364.97ZM124.676 363.192C124.662 365.026 123.682 365.642 122.73 365.768C121.904 365.88 121.316 365.488 121.316 364.872C121.316 364.214 121.75 363.92 122.52 363.836C123.584 363.724 124.256 363.654 124.676 363.192ZM131.823 359.496C130.535 359.496 129.695 360.532 129.359 361.274C129.303 361.386 129.261 361.47 129.149 361.442C128.967 361.4 129.051 361.204 129.107 361.078C129.247 360.784 129.331 360.518 129.331 360.07V359.608H127.539V367H129.331V363.99C129.331 362.282 130.283 361.12 131.319 361.12C132.257 361.12 132.691 361.582 132.691 363.248V367H134.483V362.632C134.483 360.532 133.419 359.496 131.823 359.496ZM140.696 356.92V359.888C140.696 360.182 140.766 360.406 140.892 360.658C140.962 360.798 141.046 360.966 140.906 361.036C140.766 361.106 140.682 360.924 140.654 360.868C140.248 360.056 139.464 359.496 138.316 359.496C136.398 359.496 135.096 361.176 135.096 363.304C135.096 365.432 136.398 367.112 138.316 367.112C139.436 367.112 140.136 366.496 140.654 365.726C140.682 365.684 140.738 365.544 140.864 365.586C141.018 365.642 140.962 365.782 140.892 365.922C140.766 366.174 140.696 366.398 140.696 366.678V367H142.488V356.92H140.696ZM138.736 365.488C137.476 365.488 136.888 364.48 136.888 363.304C136.888 362.128 137.476 361.12 138.736 361.12C139.912 361.12 140.696 362.128 140.696 363.304C140.696 364.48 139.912 365.488 138.736 365.488ZM147.754 367H149.658V362.856H153.802V361.288H149.658V358.824H154.698V357.144H147.754V367ZM154.983 364.97C154.983 366.216 156.173 367.112 157.559 367.112C158.875 367.112 159.687 366.524 160.107 365.502C160.135 365.432 160.191 365.292 160.331 365.348C160.457 365.404 160.401 365.544 160.345 365.67C160.219 365.908 160.135 366.146 160.135 366.482V367H161.927V362.912C161.927 360.056 160.401 359.496 158.707 359.496C157.055 359.496 155.459 360.21 155.207 362.072H156.971C157.069 361.47 157.391 360.952 158.651 360.952C159.925 360.952 160.121 361.512 160.135 362.016C160.149 362.702 158.987 362.576 157.671 362.646C156.187 362.73 154.983 363.332 154.983 364.97ZM160.135 363.192C160.121 365.026 159.141 365.642 158.189 365.768C157.363 365.88 156.775 365.488 156.775 364.872C156.775 364.214 157.209 363.92 157.979 363.836C159.043 363.724 159.715 363.654 160.135 363.192ZM162.551 364.508C162.621 366.09 163.755 367.112 165.897 367.112C168.081 367.112 169.271 366.23 169.271 364.69C169.271 363.206 167.969 362.618 166.163 362.436C164.721 362.296 164.567 362.002 164.567 361.652C164.567 361.232 164.875 360.896 165.897 360.896C166.933 360.896 167.241 361.414 167.283 361.876H169.047C168.949 360.532 167.885 359.496 165.939 359.496C163.839 359.496 162.775 360.546 162.775 361.75C162.775 362.576 163.069 363.752 165.337 364.032C166.751 364.2 167.479 364.284 167.479 364.83C167.479 365.32 167.101 365.712 165.953 365.712C164.651 365.712 164.329 365.054 164.315 364.508H162.551ZM174.29 359.496C173.002 359.496 172.162 360.532 171.826 361.274C171.77 361.386 171.728 361.47 171.616 361.442C171.434 361.4 171.518 361.204 171.574 361.078C171.714 360.784 171.798 360.518 171.798 360.07V356.92H170.006V367H171.798V363.99C171.798 362.282 172.75 361.12 173.786 361.12C174.724 361.12 175.158 361.582 175.158 363.248V367H176.95V362.632C176.95 360.532 175.886 359.496 174.29 359.496ZM177.902 358.712H179.694V356.92H177.902V358.712ZM177.902 367H179.694V359.608H177.902V367ZM184.014 359.496C181.704 359.496 180.318 361.204 180.318 363.304C180.318 365.404 181.704 367.112 184.014 367.112C186.324 367.112 187.71 365.404 187.71 363.304C187.71 361.204 186.324 359.496 184.014 359.496ZM184.014 365.488C182.796 365.488 182.11 364.508 182.11 363.304C182.11 362.1 182.796 361.12 184.014 361.12C185.232 361.12 185.918 362.1 185.918 363.304C185.918 364.508 185.232 365.488 184.014 365.488ZM192.618 359.496C191.33 359.496 190.49 360.532 190.154 361.274C190.098 361.386 190.056 361.47 189.944 361.442C189.762 361.4 189.846 361.204 189.902 361.078C190.042 360.784 190.126 360.518 190.126 360.07V359.608H188.334V367H190.126V363.99C190.126 362.282 191.078 361.12 192.114 361.12C193.052 361.12 193.486 361.582 193.486 363.248V367H195.278V362.632C195.278 360.532 194.214 359.496 192.618 359.496Z" fill="#8A91A8"/>
<rect x="31.9999" y="352" width="18" height="18" rx="4" stroke="#DCDEE5" stroke-width="1.5"/>
<path d="M71.9279 399.144V405.696C71.9279 407.04 71.1579 407.432 70.5839 407.432C69.8559 407.432 69.2399 406.942 69.2399 405.584H67.3359C67.3359 407.796 68.4559 409.112 70.5839 409.112C72.6839 409.112 73.8319 407.796 73.8319 405.584V399.144H71.9279ZM81.6204 405.206C81.6204 402.518 79.8424 401.496 78.1344 401.496C75.8804 401.496 74.4524 402.994 74.4524 405.304C74.4524 407.502 75.7684 409.112 78.1624 409.112C80.1364 409.112 81.1724 407.95 81.4944 406.424H79.6744C79.4644 407.082 79.0304 407.544 78.1764 407.544C77.0564 407.544 76.3284 406.872 76.2024 405.752H81.5784C81.6064 405.542 81.6204 405.402 81.6204 405.206ZM76.2724 404.52C76.4544 403.638 76.9724 402.952 78.1904 402.952C79.2264 402.952 79.7584 403.624 79.8284 404.52H76.2724ZM81.3397 401.608L83.4677 409H85.8197L86.8137 404.282C86.8837 403.946 86.8837 403.582 86.8837 403.288C86.8837 403.19 86.9117 403.078 87.0517 403.078C87.1917 403.078 87.2197 403.19 87.2197 403.288C87.2197 403.582 87.2197 403.946 87.2897 404.282L88.2837 409H90.6357L92.7637 401.608H90.8597L89.6977 406.704C89.6277 407.012 89.6277 407.306 89.6277 407.6C89.6277 407.698 89.5997 407.81 89.4597 407.81C89.3197 407.81 89.2917 407.698 89.2917 407.6C89.2917 407.306 89.2917 407.012 89.2217 406.704L88.1157 401.608H85.9877L84.8817 406.704C84.8117 407.012 84.8117 407.306 84.8117 407.6C84.8117 407.698 84.7837 407.81 84.6437 407.81C84.5037 407.81 84.4757 407.698 84.4757 407.6C84.4757 407.306 84.4757 407.012 84.4057 406.704L83.2437 401.608H81.3397ZM99.6542 405.206C99.6542 402.518 97.8762 401.496 96.1682 401.496C93.9142 401.496 92.4862 402.994 92.4862 405.304C92.4862 407.502 93.8022 409.112 96.1962 409.112C98.1702 409.112 99.2062 407.95 99.5282 406.424H97.7082C97.4982 407.082 97.0642 407.544 96.2102 407.544C95.0902 407.544 94.3622 406.872 94.2362 405.752H99.6122C99.6402 405.542 99.6542 405.402 99.6542 405.206ZM94.3062 404.52C94.4882 403.638 95.0062 402.952 96.2242 402.952C97.2602 402.952 97.7922 403.624 97.8622 404.52H94.3062ZM100.269 398.92V409H102.061V398.92H100.269ZM104.895 403.19C104.727 403.162 104.769 402.994 104.825 402.868C104.951 402.616 105.035 402.336 105.035 402.014V401.608H103.243V409H105.035V405.794C105.035 403.918 105.637 403.176 107.723 403.316V401.496C105.917 401.496 105.511 402.028 105.063 403.05C105.049 403.092 104.979 403.204 104.895 403.19ZM107.673 401.608L110.557 409.098L110.403 409.546C110.207 410.12 109.997 410.12 108.933 410.12H108.317V411.688H109.661C110.949 411.688 111.649 411.17 112.153 409.854L115.289 401.608H113.385L111.803 406.382C111.705 406.676 111.677 406.956 111.677 407.222C111.677 407.334 111.663 407.46 111.509 407.46C111.355 407.46 111.341 407.32 111.341 407.222C111.341 406.942 111.327 406.676 111.229 406.382L109.577 401.608H107.673ZM126.265 401.552C126.349 400.026 124.921 399.018 123.353 399.032C121.547 399.046 120.217 400.068 120.217 401.468C120.217 402.378 120.665 403.148 121.043 403.722C120.189 404.24 119.433 405.08 119.433 406.256C119.433 408.146 121.309 409.112 122.863 409.112C123.829 409.112 124.781 408.846 125.565 408.356C126.377 408.748 127.301 409 128.323 409H129.065V407.432H128.463C127.847 407.432 127.287 407.334 126.783 407.152C127.105 406.648 127.385 406.032 127.553 405.36H129.065V403.848H126.181C126.181 404.828 125.831 405.752 125.383 406.396C124.557 405.794 123.927 405.038 123.465 404.38C125.341 403.54 126.209 402.784 126.265 401.552ZM122.009 401.58C122.023 400.88 122.569 400.544 123.297 400.544C123.801 400.544 124.515 400.838 124.473 401.468C124.431 401.888 124.277 402.21 123.255 402.714C122.877 402.882 122.765 402.98 122.555 403.12C122.429 403.204 122.331 403.274 122.233 403.176C122.149 403.092 122.205 403.008 122.261 402.91C122.331 402.798 122.247 402.602 122.107 402.196C122.037 402 122.009 401.79 122.009 401.58ZM121.225 406.382C121.225 405.976 121.295 405.696 121.575 405.43C121.715 405.29 121.869 405.164 122.009 405.01C122.107 404.912 122.191 404.856 122.289 404.926C122.373 404.996 122.345 405.08 122.275 405.192C122.177 405.332 122.303 405.598 122.597 405.948C122.891 406.298 123.227 406.662 123.619 407.012C123.759 407.152 123.927 407.278 124.207 407.46C124.319 407.516 124.389 407.614 124.319 407.712C124.249 407.824 124.095 407.768 123.899 407.656C123.745 407.572 123.591 407.558 123.409 407.572C123.255 407.586 123.101 407.6 122.947 407.6C121.743 407.6 121.225 406.844 121.225 406.382ZM132.986 399.144L135.45 409H138.362L139.454 402.63C139.51 402.336 139.538 401.902 139.538 401.44C139.538 401.356 139.566 401.244 139.706 401.244C139.846 401.244 139.874 401.356 139.874 401.44C139.874 401.902 139.902 402.336 139.958 402.63L141.05 409H143.962L146.426 399.144H144.41L142.744 406.452C142.66 406.83 142.618 407.292 142.618 407.628C142.618 407.712 142.59 407.81 142.45 407.81C142.324 407.81 142.282 407.726 142.282 407.628C142.282 407.292 142.254 406.83 142.184 406.452L140.826 399.144H138.586L137.228 406.452C137.158 406.83 137.13 407.292 137.13 407.628C137.13 407.726 137.088 407.81 136.962 407.81C136.822 407.81 136.794 407.712 136.794 407.628C136.78 407.292 136.752 406.83 136.668 406.452L135.002 399.144H132.986ZM145.686 406.97C145.686 408.216 146.876 409.112 148.262 409.112C149.578 409.112 150.39 408.524 150.81 407.502C150.838 407.432 150.894 407.292 151.034 407.348C151.16 407.404 151.104 407.544 151.048 407.67C150.922 407.908 150.838 408.146 150.838 408.482V409H152.63V404.912C152.63 402.056 151.104 401.496 149.41 401.496C147.758 401.496 146.162 402.21 145.91 404.072H147.674C147.772 403.47 148.094 402.952 149.354 402.952C150.628 402.952 150.824 403.512 150.838 404.016C150.852 404.702 149.69 404.576 148.374 404.646C146.89 404.73 145.686 405.332 145.686 406.97ZM150.838 405.192C150.824 407.026 149.844 407.642 148.892 407.768C148.066 407.88 147.478 407.488 147.478 406.872C147.478 406.214 147.912 405.92 148.682 405.836C149.746 405.724 150.418 405.654 150.838 405.192ZM158.058 403.176V401.608H156.042V399.592H154.25V401.608H152.906V403.176H154.25V406.732C154.25 408.51 154.95 409 156.434 409H158.058V407.432H156.812C156.056 407.432 156.042 407.362 156.042 406.55V403.176H158.058ZM158.333 405.304C158.333 407.502 159.817 409.112 162.071 409.112C164.157 409.112 165.375 407.712 165.501 406.2H163.737C163.625 406.9 163.079 407.488 162.071 407.488C160.839 407.488 160.125 406.592 160.125 405.304C160.125 404.016 160.839 403.12 162.071 403.12C163.079 403.12 163.625 403.708 163.737 404.408H165.501C165.375 402.896 164.143 401.496 162.071 401.496C159.775 401.496 158.333 403.106 158.333 405.304ZM170.4 401.496C169.112 401.496 168.272 402.532 167.936 403.274C167.88 403.386 167.838 403.47 167.726 403.442C167.544 403.4 167.628 403.204 167.684 403.078C167.824 402.784 167.908 402.518 167.908 402.07V398.92H166.116V409H167.908V405.99C167.908 404.282 168.86 403.12 169.896 403.12C170.834 403.12 171.268 403.582 171.268 405.248V409H173.06V404.632C173.06 402.532 171.996 401.496 170.4 401.496ZM180.841 405.206C180.841 402.518 179.063 401.496 177.355 401.496C175.101 401.496 173.673 402.994 173.673 405.304C173.673 407.502 174.989 409.112 177.383 409.112C179.357 409.112 180.393 407.95 180.715 406.424H178.895C178.685 407.082 178.251 407.544 177.397 407.544C176.277 407.544 175.549 406.872 175.423 405.752H180.799C180.827 405.542 180.841 405.402 180.841 405.206ZM175.493 404.52C175.675 403.638 176.193 402.952 177.411 402.952C178.447 402.952 178.979 403.624 179.049 404.52H175.493ZM181.227 406.508C181.297 408.09 182.431 409.112 184.573 409.112C186.757 409.112 187.947 408.23 187.947 406.69C187.947 405.206 186.645 404.618 184.839 404.436C183.397 404.296 183.243 404.002 183.243 403.652C183.243 403.232 183.551 402.896 184.573 402.896C185.609 402.896 185.917 403.414 185.959 403.876H187.723C187.625 402.532 186.561 401.496 184.615 401.496C182.515 401.496 181.451 402.546 181.451 403.75C181.451 404.576 181.745 405.752 184.013 406.032C185.427 406.2 186.155 406.284 186.155 406.83C186.155 407.32 185.777 407.712 184.629 407.712C183.327 407.712 183.005 407.054 182.991 406.508H181.227Z" fill="#8A91A8"/>
<rect x="31.9999" y="394" width="18" height="18" rx="4" stroke="#DCDEE5" stroke-width="1.5"/>
<path d="M74.168 441.144L74.168 445.232H69.688V441.144H67.784V451H69.688V446.912H74.168V451H76.072V441.144H74.168ZM80.6094 443.496C78.2994 443.496 76.9134 445.204 76.9134 447.304C76.9134 449.404 78.2994 451.112 80.6094 451.112C82.9194 451.112 84.3054 449.404 84.3054 447.304C84.3054 445.204 82.9194 443.496 80.6094 443.496ZM80.6094 449.488C79.3914 449.488 78.7054 448.508 78.7054 447.304C78.7054 446.1 79.3914 445.12 80.6094 445.12C81.8274 445.12 82.5134 446.1 82.5134 447.304C82.5134 448.508 81.8274 449.488 80.6094 449.488ZM93.021 443.496C92.139 443.496 91.397 444.028 90.977 444.966C90.935 445.064 90.865 445.092 90.781 445.092C90.669 445.092 90.599 445.05 90.571 444.952C90.375 444.098 89.759 443.496 88.793 443.496C87.813 443.496 87.127 444.098 86.749 445.064C86.721 445.134 86.665 445.26 86.525 445.218C86.385 445.176 86.427 445.036 86.483 444.91C86.623 444.602 86.721 444.392 86.721 444.028V443.608H84.929V451H86.721V447.584C86.721 446.156 87.365 445.12 88.233 445.12C89.143 445.12 89.297 445.736 89.297 446.856V451H91.089V447.276C91.089 445.96 91.691 445.12 92.475 445.12C93.343 445.12 93.665 445.568 93.665 446.688V451H95.457V446.408C95.457 444.196 94.309 443.496 93.021 443.496ZM103.236 447.206C103.236 444.518 101.458 443.496 99.7502 443.496C97.4962 443.496 96.0682 444.994 96.0682 447.304C96.0682 449.502 97.3842 451.112 99.7782 451.112C101.752 451.112 102.788 449.95 103.11 448.424H101.29C101.08 449.082 100.646 449.544 99.7922 449.544C98.6722 449.544 97.9442 448.872 97.8182 447.752H103.194C103.222 447.542 103.236 447.402 103.236 447.206ZM97.8882 446.52C98.0702 445.638 98.5882 444.952 99.8062 444.952C100.842 444.952 101.374 445.624 101.444 446.52H97.8882ZM107.594 448.97C107.594 450.216 108.784 451.112 110.17 451.112C111.486 451.112 112.298 450.524 112.718 449.502C112.746 449.432 112.802 449.292 112.942 449.348C113.068 449.404 113.012 449.544 112.956 449.67C112.83 449.908 112.746 450.146 112.746 450.482V451H114.538V446.912C114.538 444.056 113.012 443.496 111.318 443.496C109.666 443.496 108.07 444.21 107.818 446.072H109.582C109.68 445.47 110.002 444.952 111.262 444.952C112.536 444.952 112.732 445.512 112.746 446.016C112.76 446.702 111.598 446.576 110.282 446.646C108.798 446.73 107.594 447.332 107.594 448.97ZM112.746 447.192C112.732 449.026 111.752 449.642 110.8 449.768C109.974 449.88 109.386 449.488 109.386 448.872C109.386 448.214 109.82 447.92 110.59 447.836C111.654 447.724 112.326 447.654 112.746 447.192ZM119.894 443.496C118.606 443.496 117.766 444.532 117.43 445.274C117.374 445.386 117.332 445.47 117.22 445.442C117.038 445.4 117.122 445.204 117.178 445.078C117.318 444.784 117.402 444.518 117.402 444.07V443.608H115.61V451H117.402V447.99C117.402 446.282 118.354 445.12 119.39 445.12C120.328 445.12 120.762 445.582 120.762 447.248V451H122.554V446.632C122.554 444.532 121.49 443.496 119.894 443.496ZM128.767 440.92V443.888C128.767 444.182 128.837 444.406 128.963 444.658C129.033 444.798 129.117 444.966 128.977 445.036C128.837 445.106 128.753 444.924 128.725 444.868C128.319 444.056 127.535 443.496 126.387 443.496C124.469 443.496 123.167 445.176 123.167 447.304C123.167 449.432 124.469 451.112 126.387 451.112C127.507 451.112 128.207 450.496 128.725 449.726C128.753 449.684 128.809 449.544 128.935 449.586C129.089 449.642 129.033 449.782 128.963 449.922C128.837 450.174 128.767 450.398 128.767 450.678V451H130.559V440.92H128.767ZM126.807 449.488C125.547 449.488 124.959 448.48 124.959 447.304C124.959 446.128 125.547 445.12 126.807 445.12C127.983 445.12 128.767 446.128 128.767 447.304C128.767 448.48 127.983 449.488 126.807 449.488ZM138.835 442.488H140.081V440.92H138.457C136.973 440.92 136.273 441.41 136.273 443.188V443.608H135.153V445.176H136.273V451H138.065V445.176H140.081V443.608H138.065V443.356C138.065 442.544 138.079 442.488 138.835 442.488ZM143.135 451.112C144.423 451.112 145.235 450.062 145.599 449.334C145.655 449.222 145.697 449.138 145.809 449.166C145.991 449.208 145.907 449.404 145.851 449.53C145.725 449.824 145.627 450.09 145.627 450.538V451H147.419V443.608H145.627V446.618C145.627 448.326 144.675 449.488 143.639 449.488C142.701 449.488 142.267 449.026 142.267 447.36V443.608H140.475V447.976C140.475 450.076 141.539 451.112 143.135 451.112ZM150.247 445.19C150.079 445.162 150.121 444.994 150.177 444.868C150.303 444.616 150.387 444.336 150.387 444.014V443.608H148.595V451H150.387V447.794C150.387 445.918 150.989 445.176 153.075 445.316V443.496C151.269 443.496 150.863 444.028 150.415 445.05C150.401 445.092 150.331 445.204 150.247 445.19ZM157.862 443.496C156.574 443.496 155.734 444.532 155.398 445.274C155.342 445.386 155.3 445.47 155.188 445.442C155.006 445.4 155.09 445.204 155.146 445.078C155.286 444.784 155.37 444.518 155.37 444.07V443.608H153.578V451H155.37V447.99C155.37 446.282 156.322 445.12 157.358 445.12C158.296 445.12 158.73 445.582 158.73 447.248V451H160.522V446.632C160.522 444.532 159.458 443.496 157.862 443.496ZM161.474 442.712H163.266V440.92H161.474V442.712ZM161.474 451H163.266V443.608H161.474V451ZM168.819 445.176V443.608H166.803V441.592H165.011V443.608H163.667V445.176H165.011V448.732C165.011 450.51 165.711 451 167.195 451H168.819V449.432H167.573C166.817 449.432 166.803 449.362 166.803 448.55V445.176H168.819ZM172.209 451.112C173.497 451.112 174.309 450.062 174.673 449.334C174.729 449.222 174.771 449.138 174.883 449.166C175.065 449.208 174.981 449.404 174.925 449.53C174.799 449.824 174.701 450.09 174.701 450.538V451H176.493V443.608H174.701V446.618C174.701 448.326 173.749 449.488 172.713 449.488C171.775 449.488 171.341 449.026 171.341 447.36V443.608H169.549V447.976C169.549 450.076 170.613 451.112 172.209 451.112ZM179.321 445.19C179.153 445.162 179.195 444.994 179.251 444.868C179.377 444.616 179.461 444.336 179.461 444.014V443.608H177.669V451H179.461V447.794C179.461 445.918 180.063 445.176 182.149 445.316V443.496C180.343 443.496 179.937 444.028 179.489 445.05C179.475 445.092 179.405 445.204 179.321 445.19ZM189.263 447.206C189.263 444.518 187.485 443.496 185.777 443.496C183.523 443.496 182.095 444.994 182.095 447.304C182.095 449.502 183.411 451.112 185.805 451.112C187.779 451.112 188.815 449.95 189.137 448.424H187.317C187.107 449.082 186.673 449.544 185.819 449.544C184.699 449.544 183.971 448.872 183.845 447.752H189.221C189.249 447.542 189.263 447.402 189.263 447.206ZM183.915 446.52C184.097 445.638 184.615 444.952 185.833 444.952C186.869 444.952 187.401 445.624 187.471 446.52H183.915ZM189.649 448.508C189.719 450.09 190.853 451.112 192.995 451.112C195.179 451.112 196.369 450.23 196.369 448.69C196.369 447.206 195.067 446.618 193.261 446.436C191.819 446.296 191.665 446.002 191.665 445.652C191.665 445.232 191.973 444.896 192.995 444.896C194.031 444.896 194.339 445.414 194.381 445.876H196.145C196.047 444.532 194.983 443.496 193.037 443.496C190.937 443.496 189.873 444.546 189.873 445.75C189.873 446.576 190.167 447.752 192.435 448.032C193.849 448.2 194.577 448.284 194.577 448.83C194.577 449.32 194.199 449.712 193.051 449.712C191.749 449.712 191.427 449.054 191.413 448.508H189.649Z" fill="#8A91A8"/>
<rect x="31.9999" y="436" width="18" height="18" rx="4" stroke="#DCDEE5" stroke-width="1.5"/>
<path d="M71.48 486.966C69.744 486.77 69.562 486.126 69.562 485.748C69.562 485.328 69.926 484.6 71.368 484.6C72.796 484.6 73.23 485.524 73.23 486.168H75.036C75.008 484.572 73.958 483.032 71.396 483.032C69.058 483.032 67.672 484.292 67.672 485.832C67.672 487.512 68.568 488.422 71.368 488.786C73.062 489.01 73.496 489.5 73.496 490.172C73.496 490.718 73.006 491.544 71.368 491.544C69.562 491.544 69.212 490.284 69.184 489.528H67.336C67.336 491.348 68.624 493.112 71.368 493.112C74 493.112 75.4 491.684 75.4 490.06C75.4 487.82 73.79 487.232 71.48 486.966ZM78.0323 485.608H76.2403L76.2403 495.688H78.0323V492.678C78.0323 492.398 77.9623 492.174 77.8363 491.922C77.7663 491.782 77.7103 491.642 77.8643 491.586C77.9903 491.544 78.0463 491.684 78.0743 491.726C78.5223 492.538 79.2923 493.112 80.4123 493.112C82.3303 493.112 83.6323 491.432 83.6323 489.304C83.6323 487.176 82.3303 485.496 80.4123 485.496C79.2643 485.496 78.5223 486.084 78.0743 486.868C78.0463 486.924 77.9623 487.106 77.8223 487.036C77.6823 486.966 77.7803 486.798 77.8363 486.658C77.9623 486.406 78.0323 486.182 78.0323 485.888V485.608ZM79.9923 491.488C78.8163 491.488 78.0323 490.48 78.0323 489.304C78.0323 488.128 78.8163 487.12 79.9923 487.12C81.2523 487.12 81.8403 488.128 81.8403 489.304C81.8403 490.48 81.2523 491.488 79.9923 491.488ZM87.8352 485.496C85.5252 485.496 84.1392 487.204 84.1392 489.304C84.1392 491.404 85.5252 493.112 87.8352 493.112C90.1452 493.112 91.5312 491.404 91.5312 489.304C91.5312 487.204 90.1452 485.496 87.8352 485.496ZM87.8352 491.488C86.6172 491.488 85.9312 490.508 85.9312 489.304C85.9312 488.1 86.6172 487.12 87.8352 487.12C89.0532 487.12 89.7392 488.1 89.7392 489.304C89.7392 490.508 89.0532 491.488 87.8352 491.488ZM93.8069 487.19C93.6389 487.162 93.6809 486.994 93.7369 486.868C93.8629 486.616 93.9469 486.336 93.9469 486.014V485.608H92.1549V493H93.9469V489.794C93.9469 487.918 94.5489 487.176 96.6349 487.316V485.496C94.8289 485.496 94.4229 486.028 93.9749 487.05C93.9609 487.092 93.8909 487.204 93.8069 487.19ZM101.96 487.176V485.608H99.9444V483.592H98.1524V485.608H96.8084V487.176H98.1524V490.732C98.1524 492.51 98.8524 493 100.336 493H101.96V491.432H100.714C99.9584 491.432 99.9444 491.362 99.9444 490.55V487.176H101.96ZM102.577 490.508C102.647 492.09 103.781 493.112 105.923 493.112C108.107 493.112 109.297 492.23 109.297 490.69C109.297 489.206 107.995 488.618 106.189 488.436C104.747 488.296 104.593 488.002 104.593 487.652C104.593 487.232 104.901 486.896 105.923 486.896C106.959 486.896 107.267 487.414 107.309 487.876H109.073C108.975 486.532 107.911 485.496 105.965 485.496C103.865 485.496 102.801 486.546 102.801 487.75C102.801 488.576 103.095 489.752 105.363 490.032C106.777 490.2 107.505 490.284 107.505 490.83C107.505 491.32 107.127 491.712 105.979 491.712C104.677 491.712 104.355 491.054 104.341 490.508H102.577ZM120.721 485.552C120.805 484.026 119.377 483.018 117.809 483.032C116.003 483.046 114.673 484.068 114.673 485.468C114.673 486.378 115.121 487.148 115.499 487.722C114.645 488.24 113.889 489.08 113.889 490.256C113.889 492.146 115.765 493.112 117.319 493.112C118.285 493.112 119.237 492.846 120.021 492.356C120.833 492.748 121.757 493 122.779 493H123.521V491.432H122.919C122.303 491.432 121.743 491.334 121.239 491.152C121.561 490.648 121.841 490.032 122.009 489.36H123.521V487.848H120.637C120.637 488.828 120.287 489.752 119.839 490.396C119.013 489.794 118.383 489.038 117.921 488.38C119.797 487.54 120.665 486.784 120.721 485.552ZM116.465 485.58C116.479 484.88 117.025 484.544 117.753 484.544C118.257 484.544 118.971 484.838 118.929 485.468C118.887 485.888 118.733 486.21 117.711 486.714C117.333 486.882 117.221 486.98 117.011 487.12C116.885 487.204 116.787 487.274 116.689 487.176C116.605 487.092 116.661 487.008 116.717 486.91C116.787 486.798 116.703 486.602 116.563 486.196C116.493 486 116.465 485.79 116.465 485.58ZM115.681 490.382C115.681 489.976 115.751 489.696 116.031 489.43C116.171 489.29 116.325 489.164 116.465 489.01C116.563 488.912 116.647 488.856 116.745 488.926C116.829 488.996 116.801 489.08 116.731 489.192C116.633 489.332 116.759 489.598 117.053 489.948C117.347 490.298 117.683 490.662 118.075 491.012C118.215 491.152 118.383 491.278 118.663 491.46C118.775 491.516 118.845 491.614 118.775 491.712C118.705 491.824 118.551 491.768 118.355 491.656C118.201 491.572 118.047 491.558 117.865 491.572C117.711 491.586 117.557 491.6 117.403 491.6C116.199 491.6 115.681 490.844 115.681 490.382ZM135.058 484.824V483.144H128.114V493H135.058V491.32H130.018V488.856H134.162V487.288H130.018V484.824H135.058ZM140.403 485.496C139.115 485.496 138.275 486.532 137.939 487.274C137.883 487.386 137.841 487.47 137.729 487.442C137.547 487.4 137.631 487.204 137.687 487.078C137.827 486.784 137.911 486.518 137.911 486.07V485.608H136.119V493H137.911V489.99C137.911 488.282 138.863 487.12 139.899 487.12C140.837 487.12 141.271 487.582 141.271 489.248V493H143.063V488.632C143.063 486.532 141.999 485.496 140.403 485.496ZM148.494 487.176V485.608H146.478V483.592H144.686V485.608H143.342V487.176H144.686V490.732C144.686 492.51 145.386 493 146.87 493H148.494V491.432H147.248C146.492 491.432 146.478 491.362 146.478 490.55V487.176H148.494ZM155.937 489.206C155.937 486.518 154.159 485.496 152.451 485.496C150.197 485.496 148.769 486.994 148.769 489.304C148.769 491.502 150.085 493.112 152.479 493.112C154.453 493.112 155.489 491.95 155.811 490.424H153.991C153.781 491.082 153.347 491.544 152.493 491.544C151.373 491.544 150.645 490.872 150.519 489.752H155.895C155.923 489.542 155.937 489.402 155.937 489.206ZM150.589 488.52C150.771 487.638 151.289 486.952 152.507 486.952C153.543 486.952 154.075 487.624 154.145 488.52H150.589ZM158.204 487.19C158.036 487.162 158.078 486.994 158.134 486.868C158.26 486.616 158.344 486.336 158.344 486.014V485.608H156.552V493H158.344V489.794C158.344 487.918 158.946 487.176 161.032 487.316V485.496C159.226 485.496 158.82 486.028 158.372 487.05C158.358 487.092 158.288 487.204 158.204 487.19ZM166.358 487.176V485.608H164.342V483.592H162.55V485.608H161.206V487.176H162.55V490.732C162.55 492.51 163.25 493 164.734 493H166.358V491.432H165.112C164.356 491.432 164.342 491.362 164.342 490.55V487.176H166.358ZM166.864 490.97C166.864 492.216 168.054 493.112 169.44 493.112C170.756 493.112 171.568 492.524 171.988 491.502C172.016 491.432 172.072 491.292 172.212 491.348C172.338 491.404 172.282 491.544 172.226 491.67C172.1 491.908 172.016 492.146 172.016 492.482V493H173.808V488.912C173.808 486.056 172.282 485.496 170.588 485.496C168.936 485.496 167.34 486.21 167.088 488.072H168.852C168.95 487.47 169.272 486.952 170.532 486.952C171.806 486.952 172.002 487.512 172.016 488.016C172.03 488.702 170.868 488.576 169.552 488.646C168.068 488.73 166.864 489.332 166.864 490.97ZM172.016 489.192C172.002 491.026 171.022 491.642 170.07 491.768C169.244 491.88 168.656 491.488 168.656 490.872C168.656 490.214 169.09 489.92 169.86 489.836C170.924 489.724 171.596 489.654 172.016 489.192ZM174.989 484.712H176.781V482.92H174.989V484.712ZM174.989 493H176.781V485.608H174.989V493ZM182.247 485.496C180.959 485.496 180.119 486.532 179.783 487.274C179.727 487.386 179.685 487.47 179.573 487.442C179.391 487.4 179.475 487.204 179.531 487.078C179.671 486.784 179.755 486.518 179.755 486.07V485.608H177.963V493H179.755V489.99C179.755 488.282 180.707 487.12 181.743 487.12C182.681 487.12 183.115 487.582 183.115 489.248V493H184.907V488.632C184.907 486.532 183.843 485.496 182.247 485.496ZM193.951 485.496C193.069 485.496 192.327 486.028 191.907 486.966C191.865 487.064 191.795 487.092 191.711 487.092C191.599 487.092 191.529 487.05 191.501 486.952C191.305 486.098 190.689 485.496 189.723 485.496C188.743 485.496 188.057 486.098 187.679 487.064C187.651 487.134 187.595 487.26 187.455 487.218C187.315 487.176 187.357 487.036 187.413 486.91C187.553 486.602 187.651 486.392 187.651 486.028V485.608H185.859V493H187.651V489.584C187.651 488.156 188.295 487.12 189.163 487.12C190.073 487.12 190.227 487.736 190.227 488.856V493H192.019V489.276C192.019 487.96 192.621 487.12 193.405 487.12C194.273 487.12 194.595 487.568 194.595 488.688V493H196.387V488.408C196.387 486.196 195.239 485.496 193.951 485.496ZM204.166 489.206C204.166 486.518 202.388 485.496 200.68 485.496C198.426 485.496 196.998 486.994 196.998 489.304C196.998 491.502 198.314 493.112 200.708 493.112C202.682 493.112 203.718 491.95 204.04 490.424H202.22C202.01 491.082 201.576 491.544 200.722 491.544C199.602 491.544 198.874 490.872 198.748 489.752H204.124C204.152 489.542 204.166 489.402 204.166 489.206ZM198.818 488.52C199 487.638 199.518 486.952 200.736 486.952C201.772 486.952 202.304 487.624 202.374 488.52H198.818ZM209.066 485.496C207.778 485.496 206.938 486.532 206.602 487.274C206.546 487.386 206.504 487.47 206.392 487.442C206.21 487.4 206.294 487.204 206.35 487.078C206.49 486.784 206.574 486.518 206.574 486.07V485.608H204.782V493H206.574V489.99C206.574 488.282 207.526 487.12 208.562 487.12C209.5 487.12 209.934 487.582 209.934 489.248V493H211.726V488.632C211.726 486.532 210.662 485.496 209.066 485.496ZM217.157 487.176V485.608H215.141V483.592H213.349V485.608H212.005V487.176H213.349V490.732C213.349 492.51 214.049 493 215.533 493H217.157V491.432H215.911C215.155 491.432 215.141 491.362 215.141 490.55V487.176H217.157Z" fill="#8A91A8"/>
<rect x="31.9999" y="478" width="18" height="18" rx="4" stroke="#DCDEE5" stroke-width="1.5"/>
<path d="M32.8959 48.0017H35.0719V43.2657H39.8079V41.4737H35.0719V38.6577H40.8319V36.7377H32.8959V48.0017ZM41.7947 38.5297H43.8427V36.4817H41.7947V38.5297ZM41.7947 48.0017H43.8427V39.5537H41.7947V48.0017ZM45.1934 36.4817V48.0017H47.2414V36.4817H45.1934ZM53.5872 41.3457V39.5537H51.2832V37.2497H49.2352V39.5537H47.6992V41.3457H49.2352V45.4097C49.2352 47.4417 50.0352 48.0017 51.7312 48.0017H53.5872V46.2097H52.1632C51.2992 46.2097 51.2832 46.1297 51.2832 45.2017V41.3457H53.5872ZM62.0928 43.6657C62.0928 40.5937 60.0608 39.4257 58.1088 39.4257C55.5328 39.4257 53.9008 41.1377 53.9008 43.7777C53.9008 46.2897 55.4048 48.1297 58.1408 48.1297C60.3968 48.1297 61.5808 46.8017 61.9488 45.0577H59.8688C59.6288 45.8097 59.1328 46.3377 58.1568 46.3377C56.8768 46.3377 56.0448 45.5697 55.9008 44.2897H62.0448C62.0768 44.0497 62.0928 43.8897 62.0928 43.6657ZM55.9808 42.8817C56.1888 41.8737 56.7808 41.0897 58.1728 41.0897C59.3568 41.0897 59.9648 41.8577 60.0448 42.8817H55.9808ZM64.6839 41.3617C64.4919 41.3297 64.5399 41.1377 64.6039 40.9937C64.7479 40.7057 64.8439 40.3857 64.8439 40.0177V39.5537H62.7959V48.0017H64.8439V44.3377C64.8439 42.1937 65.5319 41.3457 67.9159 41.5057V39.4257C65.8519 39.4257 65.3879 40.0337 64.8759 41.2017C64.8599 41.2497 64.7799 41.3777 64.6839 41.3617ZM67.9796 45.1537C68.0596 46.9617 69.3556 48.1297 71.8036 48.1297C74.2996 48.1297 75.6596 47.1217 75.6596 45.3617C75.6596 43.6657 74.1716 42.9937 72.1076 42.7857C70.4596 42.6257 70.2836 42.2897 70.2836 41.8897C70.2836 41.4097 70.6356 41.0257 71.8036 41.0257C72.9876 41.0257 73.3396 41.6177 73.3876 42.1457H75.4036C75.2916 40.6097 74.0756 39.4257 71.8516 39.4257C69.4516 39.4257 68.2356 40.6257 68.2356 42.0017C68.2356 42.9457 68.5716 44.2897 71.1636 44.6097C72.7796 44.8017 73.6116 44.8977 73.6116 45.5217C73.6116 46.0817 73.1796 46.5297 71.8676 46.5297C70.3796 46.5297 70.0116 45.7777 69.9956 45.1537H67.9796Z" fill="#000429"/>
<path d="M203.784 47.0017H205.688V43.4177H207.2C208.768 43.4177 209.048 43.9497 209.328 44.9997L209.86 47.0017H212.072L211.12 44.3697C210.91 43.7817 210.616 43.0257 209.216 42.9557C209.118 42.9557 209.062 42.8857 209.062 42.7737C209.062 42.6477 209.146 42.6057 209.216 42.5917C210.742 42.3397 211.624 41.2897 211.624 40.1417C211.624 38.4617 210.56 37.1457 207.788 37.1457H203.784V47.0017ZM205.688 41.8217V38.7977H207.998C209.076 38.7977 209.72 39.3717 209.72 40.3377C209.72 41.2057 208.768 41.8217 207.606 41.8217H205.688ZM219.411 43.2077C219.411 40.5197 217.633 39.4977 215.925 39.4977C213.671 39.4977 212.243 40.9957 212.243 43.3057C212.243 45.5037 213.559 47.1137 215.953 47.1137C217.927 47.1137 218.963 45.9517 219.285 44.4257H217.465C217.255 45.0837 216.821 45.5457 215.967 45.5457C214.847 45.5457 214.119 44.8737 213.993 43.7537H219.369C219.397 43.5437 219.411 43.4037 219.411 43.2077ZM214.063 42.5217C214.245 41.6397 214.763 40.9537 215.981 40.9537C217.017 40.9537 217.549 41.6257 217.619 42.5217H214.063ZM219.797 44.5097C219.867 46.0917 221.001 47.1137 223.143 47.1137C225.327 47.1137 226.517 46.2317 226.517 44.6917C226.517 43.2077 225.215 42.6197 223.409 42.4377C221.967 42.2977 221.813 42.0037 221.813 41.6537C221.813 41.2337 222.121 40.8977 223.143 40.8977C224.179 40.8977 224.487 41.4157 224.529 41.8777H226.293C226.195 40.5337 225.131 39.4977 223.185 39.4977C221.085 39.4977 220.021 40.5477 220.021 41.7517C220.021 42.5777 220.315 43.7537 222.583 44.0337C223.997 44.2017 224.725 44.2857 224.725 44.8317C224.725 45.3217 224.347 45.7137 223.199 45.7137C221.897 45.7137 221.575 45.0557 221.561 44.5097H219.797ZM234.082 43.2077C234.082 40.5197 232.304 39.4977 230.596 39.4977C228.342 39.4977 226.914 40.9957 226.914 43.3057C226.914 45.5037 228.23 47.1137 230.624 47.1137C232.598 47.1137 233.634 45.9517 233.956 44.4257H232.136C231.926 45.0837 231.492 45.5457 230.638 45.5457C229.518 45.5457 228.79 44.8737 228.664 43.7537H234.04C234.068 43.5437 234.082 43.4037 234.082 43.2077ZM228.734 42.5217C228.916 41.6397 229.434 40.9537 230.652 40.9537C231.688 40.9537 232.22 41.6257 232.29 42.5217H228.734ZM239.054 41.1777V39.6097H237.038V37.5937H235.246V39.6097H233.902V41.1777H235.246V44.7337C235.246 46.5117 235.946 47.0017 237.43 47.0017H239.054V45.4337H237.808C237.052 45.4337 237.038 45.3637 237.038 44.5517V41.1777H239.054Z" fill="#0069E0"/>
</svg>
