<svg width="25" height="25" viewBox="0 0 25 25" fill="none" xmlns="http://www.w3.org/2000/svg">
<path fill-rule="evenodd" clip-rule="evenodd" d="M7.55276 0.468484C8.83239 0.409575 9.24039 0.396484 12.5 0.396484C15.7597 0.396484 16.1677 0.410666 17.4462 0.468484C18.7248 0.526303 19.5975 0.730303 20.3611 1.02594C21.1608 1.32812 21.8862 1.80048 22.4862 2.41139C23.0971 3.0103 23.5684 3.73467 23.8695 4.53539C24.1662 5.29903 24.3691 6.17176 24.428 7.44812C24.4869 8.72994 24.5 9.13794 24.5 12.3965C24.5 15.6561 24.4858 16.0641 24.428 17.3438C24.3702 18.6201 24.1662 19.4928 23.8695 20.2565C23.5684 21.0573 23.0963 21.7829 22.4862 22.3827C21.8862 22.9936 21.1608 23.4648 20.3611 23.7659C19.5975 24.0627 18.7248 24.2656 17.4484 24.3245C16.1677 24.3834 15.7597 24.3965 12.5 24.3965C9.24039 24.3965 8.83239 24.3823 7.55276 24.3245C6.27639 24.2667 5.40367 24.0627 4.64003 23.7659C3.83922 23.4648 3.11365 22.9928 2.51385 22.3827C1.90335 21.7834 1.43092 21.0582 1.12949 20.2576C0.833849 19.4939 0.63094 18.6212 0.57203 17.3448C0.513121 16.063 0.500031 15.655 0.500031 12.3965C0.500031 9.13685 0.514212 8.72885 0.57203 7.4503C0.629849 6.17176 0.833849 5.29903 1.12949 4.53539C1.43136 3.73476 1.90416 3.00955 2.51494 2.4103C3.11389 1.79994 3.83873 1.32751 4.63894 1.02594C5.40258 0.730303 6.2753 0.527393 7.55167 0.468484H7.55276ZM17.3491 2.62848C16.0837 2.57067 15.704 2.55867 12.5 2.55867C9.29603 2.55867 8.91639 2.57067 7.65094 2.62848C6.48039 2.68194 5.84549 2.87721 5.42221 3.04194C4.86258 3.26012 4.46221 3.51867 4.04221 3.93867C3.64408 4.326 3.33768 4.79752 3.14549 5.31867C2.98076 5.74194 2.78549 6.37685 2.73203 7.54739C2.67421 8.81285 2.66221 9.19248 2.66221 12.3965C2.66221 15.6005 2.67421 15.9801 2.73203 17.2456C2.78549 18.4161 2.98076 19.051 3.14549 19.4743C3.33749 19.9947 3.64403 20.467 4.04221 20.8543C4.42949 21.2525 4.90185 21.559 5.42221 21.751C5.84549 21.9158 6.48039 22.111 7.65094 22.1645C8.91639 22.2223 9.29494 22.2343 12.5 22.2343C15.7051 22.2343 16.0837 22.2223 17.3491 22.1645C18.5197 22.111 19.1546 21.9158 19.5779 21.751C20.1375 21.5329 20.5378 21.2743 20.9578 20.8543C21.356 20.467 21.6626 19.9947 21.8546 19.4743C22.0193 19.051 22.2146 18.4161 22.268 17.2456C22.3258 15.9801 22.3378 15.6005 22.3378 12.3965C22.3378 9.19248 22.3258 8.81285 22.268 7.54739C22.2146 6.37685 22.0193 5.74194 21.8546 5.31867C21.6364 4.75903 21.3778 4.35867 20.9578 3.93867C20.5705 3.54056 20.099 3.23417 19.5779 3.04194C19.1546 2.87721 18.5197 2.68194 17.3491 2.62848ZM10.9673 16.0958C11.8233 16.4521 12.7764 16.5002 13.664 16.2318C14.5515 15.9635 15.3183 15.3953 15.8334 14.6244C16.3486 13.8535 16.5801 12.9276 16.4884 12.005C16.3968 11.0823 15.9877 10.2201 15.3309 9.56558C14.9123 9.14719 14.4061 8.82683 13.8488 8.62755C13.2914 8.42828 12.6969 8.35506 12.1078 8.41316C11.5188 8.47125 10.95 8.65922 10.4424 8.96354C9.93471 9.26785 9.50084 9.68093 9.172 10.173C8.84315 10.6652 8.62751 11.2241 8.54059 11.8095C8.45368 12.395 8.49765 12.9924 8.66935 13.5589C8.84104 14.1253 9.13619 14.6466 9.53354 15.0853C9.9309 15.5239 10.4206 15.869 10.9673 16.0958ZM8.13858 8.03503C8.71133 7.46228 9.39129 7.00794 10.1396 6.69797C10.888 6.388 11.69 6.22846 12.5 6.22846C13.31 6.22846 14.1121 6.388 14.8604 6.69797C15.6088 7.00794 16.2887 7.46228 16.8615 8.03503C17.4342 8.60778 17.8886 9.28774 18.1985 10.0361C18.5085 10.7844 18.6681 11.5865 18.6681 12.3965C18.6681 13.2065 18.5085 14.0085 18.1985 14.7569C17.8886 15.5052 17.4342 16.1852 16.8615 16.7579C15.7048 17.9147 14.1359 18.5645 12.5 18.5645C10.8642 18.5645 9.29531 17.9147 8.13858 16.7579C6.98185 15.6012 6.332 14.0323 6.332 12.3965C6.332 10.7606 6.98185 9.19176 8.13858 8.03503ZM20.036 7.14703C20.178 7.01314 20.2916 6.85214 20.3702 6.67355C20.4488 6.49496 20.4907 6.30241 20.4936 6.10732C20.4964 5.91222 20.4601 5.71854 20.3867 5.53773C20.3134 5.35693 20.2045 5.19268 20.0665 5.05471C19.9286 4.91674 19.7643 4.80786 19.5835 4.7345C19.4027 4.66115 19.209 4.62482 19.0139 4.62767C18.8188 4.63051 18.6263 4.67247 18.4477 4.75106C18.2691 4.82965 18.1081 4.94328 17.9742 5.08521C17.7138 5.36124 17.5713 5.72789 17.5768 6.10732C17.5823 6.48674 17.7355 6.84908 18.0038 7.1174C18.2722 7.38573 18.6345 7.53892 19.0139 7.54445C19.3934 7.54998 19.76 7.40742 20.036 7.14703Z" fill="#8A91A8"/>
</svg>
