<svg width="25" height="25" viewBox="0 0 25 25" fill="none" xmlns="http://www.w3.org/2000/svg">
<path d="M22.571 0.396484H2.42903C1.36403 0.396484 0.500031 1.26048 0.500031 2.32548V22.4675C0.500031 23.5325 1.36403 24.3965 2.42903 24.3965H22.571C23.636 24.3965 24.5 23.5325 24.5 22.4675V2.32548C24.5 1.26048 23.636 0.396484 22.571 0.396484ZM22.571 22.4765C9.13703 22.4735 2.42003 22.4705 2.42003 22.4675C2.42303 9.03348 2.42603 2.31648 2.42903 2.31648C15.863 2.31948 22.58 2.32248 22.58 2.32548C22.577 15.7595 22.574 22.4765 22.571 22.4765ZM4.05803 9.39348H7.61903V20.8475H4.05803V9.39348ZM5.84003 7.82748C6.97703 7.82748 7.90403 6.90348 7.90403 5.76348C7.90403 5.49244 7.85064 5.22404 7.74692 4.97363C7.64319 4.72321 7.49116 4.49568 7.2995 4.30402C7.10784 4.11236 6.8803 3.96032 6.62989 3.8566C6.37947 3.75287 6.11108 3.69948 5.84003 3.69948C5.56898 3.69948 5.30059 3.75287 5.05017 3.8566C4.79976 3.96032 4.57222 4.11236 4.38056 4.30402C4.1889 4.49568 4.03687 4.72321 3.93314 4.97363C3.82942 5.22404 3.77603 5.49244 3.77603 5.76348C3.77303 6.90348 4.69703 7.82748 5.84003 7.82748ZM13.409 15.1805C13.409 13.6865 13.694 12.2405 15.545 12.2405C17.369 12.2405 17.396 13.9475 17.396 15.2765V20.8475H20.954V14.5655C20.954 11.4815 20.288 9.10848 16.685 9.10848C14.954 9.10848 13.793 10.0595 13.316 10.9595H13.268V9.39348H9.85103V20.8475H13.409V15.1805Z" fill="#8A91A8"/>
</svg>
