<svg width="168" height="26" viewBox="0 0 168 26" fill="none" xmlns="http://www.w3.org/2000/svg">
<path d="M36.7548 21.0171C36.4424 21.0171 36.13 21.0171 35.7136 21.0171C35.2971 21.0171 34.9847 21.0171 34.5682 20.913C34.1517 20.913 33.7353 20.8089 33.3188 20.7048C32.9023 20.6006 32.5899 20.4965 32.1734 20.3924C31.2363 20.08 30.7157 19.4553 30.7157 18.5182L30.7157 6.54423C30.7157 6.23186 30.8198 5.9195 31.0281 5.71126C31.2363 5.50301 31.4446 5.39889 31.8611 5.19065C32.5899 4.9824 33.4229 4.77416 34.2559 4.67004C35.0888 4.67004 35.8177 4.56592 36.4424 4.56592C37.796 4.56592 39.0454 4.77416 40.0867 5.08653C41.1279 5.39889 42.065 5.9195 42.8979 6.54423C43.7309 7.27308 44.2515 8.10605 44.668 9.14726C45.0845 10.1885 45.2927 11.4379 45.2927 12.7915C45.2927 14.1451 45.0845 15.3946 44.668 16.4358C44.2515 17.477 43.6268 18.31 42.8979 19.0388C42.1691 19.7677 41.232 20.2883 40.1908 20.6006C39.2537 20.913 38.0042 21.0171 36.7548 21.0171ZM35.2971 17.2687C35.5053 17.2687 35.7136 17.3729 36.0259 17.3729C36.3383 17.3729 36.5465 17.3729 36.7548 17.3729C37.3795 17.3729 37.9001 17.2687 38.3166 17.1646C38.8372 16.9564 39.2537 16.7481 39.5661 16.3316C39.8784 16.0193 40.1908 15.4987 40.399 14.9781C40.6073 14.3533 40.7114 13.7286 40.7114 12.8956C40.7114 11.3338 40.399 10.1885 39.6702 9.35551C38.9413 8.52254 38.0042 8.21017 36.7548 8.21017C36.5465 8.21017 36.2342 8.21017 36.0259 8.21017C35.8177 8.21017 35.5053 8.21017 35.2971 8.31429V17.2687Z" fill="#0E0244"/>
<path d="M47.5835 4.67007C47.5835 4.04534 47.7918 3.42061 48.2082 3.00412C48.6247 2.58764 49.2495 2.37939 49.9783 2.37939C50.7072 2.37939 51.2278 2.58764 51.7484 3.00412C52.1649 3.42061 52.3731 4.04534 52.3731 4.67007C52.3731 5.2948 52.1649 5.91953 51.7484 6.33601C51.3319 6.7525 50.7072 6.96074 49.9783 6.96074C49.2495 6.96074 48.7288 6.7525 48.2082 6.33601C47.7918 5.8154 47.5835 5.2948 47.5835 4.67007ZM51.3319 20.7048C51.0195 20.7048 50.8113 20.8089 50.603 20.8089C50.0824 20.8089 49.5618 20.8089 49.2495 20.7048C48.9371 20.7048 48.7288 20.6007 48.5206 20.3924C48.3124 20.1842 48.1041 19.9759 48 19.7677C47.8959 19.4553 47.7918 19.143 47.7918 18.7265L47.7918 8.31432C48 8.31432 48.2082 8.2102 48.6247 8.2102C48.833 8.2102 49.1453 8.10608 49.3536 8.10608C49.8742 8.10608 50.3948 8.10608 50.7072 8.2102C51.0195 8.2102 51.2278 8.31432 51.436 8.52256C51.6443 8.62669 51.8525 8.93905 51.9566 9.14729C52.0607 9.45966 52.1649 9.77202 52.1649 10.1885V19.8718C52.1649 20.2883 51.7484 20.7048 51.3319 20.7048Z" fill="#0E0244"/>
<path d="M61.0152 7.68994C61.9522 7.68994 62.8893 7.79406 63.7223 8.10643C64.5553 8.31467 65.18 8.62704 65.7006 9.04352C66.013 9.25176 66.3254 9.56413 66.5336 9.87649C66.7418 10.1889 66.846 10.5012 66.846 11.0218V20.0804C66.846 21.0175 66.6377 21.7463 66.3253 22.4752C66.013 23.0999 65.4924 23.7247 64.9718 24.1411C64.347 24.5576 63.7223 24.87 62.8893 25.0782C62.0564 25.2865 61.2234 25.3906 60.2863 25.3906C58.7245 25.3906 57.475 25.1824 56.6421 24.7659C55.705 24.3494 55.2885 23.6205 55.2885 22.6834C55.2885 22.267 55.3926 21.9546 55.4967 21.6422C55.705 21.3299 55.8091 21.1216 56.0173 20.9134C56.5379 21.2257 57.0585 21.434 57.6833 21.6422C58.308 21.8505 58.9327 21.9546 59.6616 21.9546C60.5987 21.9546 61.3275 21.8505 61.8481 21.5381C62.3687 21.2257 62.6811 20.7051 62.6811 20.0804V19.6639C61.9522 19.9763 61.1193 20.0804 60.0781 20.0804C59.3492 20.0804 58.6204 19.9763 57.8915 19.768C57.1627 19.5598 56.5379 19.1433 56.0173 18.7268C55.4967 18.2062 55.0802 17.5815 54.7679 16.8526C54.4555 16.1238 54.2473 15.1867 54.2473 14.1455C54.2473 13.1043 54.4555 12.1672 54.7679 11.4383C55.0802 10.7095 55.6008 9.98061 56.1214 9.56413C56.7462 9.04352 57.3709 8.73116 58.2039 8.41879C59.141 7.89818 60.0781 7.68994 61.0152 7.68994ZM62.577 11.4383C62.4729 11.3342 62.2646 11.3342 62.0564 11.2301C61.8481 11.126 61.5358 11.126 61.2234 11.126C60.3904 11.126 59.7657 11.3342 59.3492 11.8548C58.9327 12.3754 58.7245 13.0001 58.7245 13.8331C58.7245 14.8743 58.9327 15.4991 59.3492 16.0197C59.7657 16.4361 60.2863 16.6444 60.911 16.6444C61.6399 16.6444 62.1605 16.4361 62.577 16.1238V11.4383Z" fill="#0E0244"/>
<path d="M69.4491 4.67007C69.4491 4.04534 69.6574 3.42061 70.0739 3.00412C70.4903 2.58764 71.1151 2.37939 71.8439 2.37939C72.5728 2.37939 73.0934 2.58764 73.614 3.00412C74.0305 3.42061 74.2387 4.04534 74.2387 4.67007C74.2387 5.2948 74.0305 5.91953 73.614 6.33601C73.1975 6.7525 72.5728 6.96074 71.8439 6.96074C71.1151 6.96074 70.5945 6.7525 70.0739 6.33601C69.6574 5.8154 69.4491 5.2948 69.4491 4.67007ZM73.1975 20.7048C72.8851 20.7048 72.6769 20.8089 72.4687 20.8089C71.948 20.8089 71.4274 20.8089 71.1151 20.7048C70.8027 20.7048 70.5945 20.6007 70.3862 20.3924C70.178 20.2883 69.9697 19.9759 69.8656 19.7677C69.7615 19.4553 69.6574 19.143 69.6574 18.7265V8.31432C69.8656 8.31432 70.0739 8.2102 70.4903 8.2102C70.6986 8.2102 71.011 8.10608 71.2192 8.10608C71.7398 8.10608 72.2604 8.10608 72.5728 8.2102C72.8851 8.2102 73.0934 8.31432 73.3016 8.52256C73.5099 8.62669 73.7181 8.93905 73.8222 9.14729C73.9264 9.45966 74.0305 9.77202 74.0305 10.1885V19.8718C74.0305 20.2883 73.614 20.7048 73.1975 20.7048Z" fill="#0E0244"/>
<path d="M76.8417 8.10586C76.8417 7.27289 76.9458 6.43992 77.2582 5.81519C77.5705 5.19046 77.987 4.66985 78.5076 4.25336C79.0282 3.83688 79.653 3.52451 80.2777 3.31627C81.0065 3.10803 81.7354 3.00391 82.4642 3.00391C83.7137 3.00391 84.6508 3.21215 85.2755 3.52451C85.9003 3.83688 86.2126 4.46161 86.2126 5.19046C86.2126 5.50282 86.1085 5.81519 86.0044 6.12755C85.9003 6.43992 85.692 6.64816 85.4838 6.75228C85.1714 6.64816 84.859 6.54404 84.4426 6.54404C84.2343 6.64816 83.8178 6.64816 83.2972 6.64816C82.5684 6.64816 81.9436 6.75228 81.5272 7.06465C81.1107 7.27289 80.9024 7.7935 80.9024 8.3141V9.14708L85.1714 9.14708C85.2755 9.35532 85.3797 9.56356 85.4838 9.87593C85.5879 10.1883 85.5879 10.5007 85.5879 10.813C85.5879 11.4377 85.4838 11.8542 85.1714 12.0625C84.859 12.3748 84.5467 12.479 84.1302 12.479H81.2148V19.8716C81.2148 20.2881 80.9024 20.7046 80.3818 20.8087C79.9653 20.8087 79.653 20.9128 79.2365 20.9128C78.82 20.9128 78.5076 20.9128 78.1953 20.8087C77.8829 20.8087 77.6747 20.7046 77.4664 20.4963C77.2582 20.3922 77.0499 20.0798 76.9458 19.8716C76.8417 19.5592 76.7376 19.2469 76.7376 18.8304V8.10586H76.8417Z" fill="#0E0244"/>
<path d="M92.1475 16.3318C92.1475 16.7483 92.2516 17.0607 92.564 17.2689C92.8764 17.4771 93.2928 17.5813 93.8134 17.5813C94.0217 17.5813 94.3341 17.5813 94.6464 17.4771H94.7505C95.167 17.373 95.5835 17.5813 95.6876 17.9977C95.7918 18.206 95.8959 18.5184 95.8959 18.8307C95.8959 19.4554 95.6876 19.9761 95.167 20.3925C94.6464 20.809 93.8134 21.0173 92.564 21.0173C91.0022 21.0173 89.8568 20.7049 89.0239 19.9761C88.1909 19.2472 87.7744 18.206 87.7744 16.6442V5.60729C87.9826 5.60729 88.1909 5.50317 88.6074 5.39904C88.9197 5.29492 89.3362 5.29492 89.7527 5.29492C90.4816 5.29492 91.1063 5.39904 91.5228 5.71141C91.9393 6.02377 92.1475 6.54438 92.1475 7.37735V9.0433L94.8547 9.0433C95.2711 9.0433 95.6876 9.35566 95.8959 9.77215C96 10.0845 96 10.3969 96 10.7092C96 11.334 95.8959 11.7505 95.5835 11.9587C95.2711 12.2711 94.9588 12.3752 94.5423 12.3752L92.1475 12.3752V16.3318Z" fill="#0E0244"/>
<path d="M3.74841 3.94126C3.74841 3.52478 3.74841 3.00417 3.85253 2.58768C4.06077 1.54647 4.89374 0.817618 5.83084 0.609375L14.6812 0.609375C18.846 1.02586 22.0738 4.56599 22.0738 8.83497V16.2276C22.0738 17.4771 21.2408 18.5183 19.9914 18.7265C19.5749 18.7265 19.0543 18.8306 18.6378 18.8306C10.4122 18.8306 3.74841 12.1669 3.74841 3.94126Z" fill="url(#paint0_linear_1_7208)"/>
<path d="M25.5098 7.68969L25.5098 20.7049C25.5098 22.2667 24.2603 23.6203 22.5944 23.9326C22.3861 24.0368 22.0738 24.0368 21.8655 24.0368H11.0369C4.8937 24.0368 -7.62939e-06 19.4554 -7.62939e-06 13.937L-7.62939e-06 3.94132C-7.62939e-06 3.73307 -7.23375e-06 3.42071 0.104114 3.21247C0.208236 2.69186 0.416478 2.27537 0.832964 1.85889C0.832964 2.06713 0.832964 2.27537 0.832964 2.48362C0.832964 13.4164 9.47505 22.1626 20.0954 22.1626C20.7202 22.1626 21.2408 22.1626 21.8655 22.0585C23.4273 21.7461 24.5727 20.2884 24.5727 18.7266L24.5727 4.04544C25.1974 5.19077 25.5098 6.33611 25.5098 7.68969Z" fill="url(#paint1_linear_1_7208)"/>
<path d="M22.0738 8.9391V16.3317C22.0738 17.5812 21.2408 18.6224 19.9914 18.8306C19.5749 18.8306 19.0543 18.9348 18.6378 18.9348C10.4122 18.9348 3.74841 12.271 3.74841 4.04539C3.74841 3.6289 3.74841 3.10829 3.85253 2.69181C4.06077 1.65059 4.89374 0.92174 5.83084 0.713497C6.03908 0.713497 6.1432 0.609375 6.35144 0.609375L13.7441 0.609375C14.0564 0.609375 14.3688 0.609375 14.6812 0.713497C18.846 1.12998 22.0738 4.67011 22.0738 8.9391Z" fill="white"/>
<path d="M22.0738 8.9391V16.3317C22.0738 17.5812 21.2408 18.6224 19.9914 18.8306C19.5749 18.8306 19.0543 18.9348 18.6378 18.9348C10.4122 18.9348 3.74841 12.271 3.74841 4.04539C3.74841 3.6289 3.74841 3.10829 3.85253 2.69181C4.06077 1.65059 4.89374 0.92174 5.83084 0.713497C6.03908 0.713497 6.1432 0.609375 6.35144 0.609375L13.7441 0.609375C14.0564 0.609375 14.3688 0.609375 14.6812 0.713497C18.846 1.12998 22.0738 4.67011 22.0738 8.9391Z" fill="url(#paint2_linear_1_7208)"/>
<path d="M167 0.609375V24.6094" stroke="#F5F7FA"/>
<defs>
<linearGradient id="paint0_linear_1_7208" x1="3.7786" y1="9.75228" x2="22.048" y2="9.75228" gradientUnits="userSpaceOnUse">
<stop offset="0.0137063" stop-color="#5AC8FA"/>
<stop offset="0.1956" stop-color="#44B4FB"/>
<stop offset="0.5419" stop-color="#1F94FD"/>
<stop offset="0.8224" stop-color="#087FFF"/>
<stop offset="1" stop-color="#0078FF"/>
</linearGradient>
<linearGradient id="paint1_linear_1_7208" x1="-0.00458898" y1="13.0309" x2="25.5607" y2="13.0309" gradientUnits="userSpaceOnUse">
<stop offset="0.0137063" stop-color="#5AC8FA"/>
<stop offset="0.1956" stop-color="#44B4FB"/>
<stop offset="0.5419" stop-color="#1F94FD"/>
<stop offset="0.8224" stop-color="#087FFF"/>
<stop offset="1" stop-color="#0078FF"/>
</linearGradient>
<linearGradient id="paint2_linear_1_7208" x1="3.7786" y1="9.72573" x2="22.048" y2="9.72573" gradientUnits="userSpaceOnUse">
<stop stop-color="#0078FF"/>
<stop offset="0.327" stop-color="#325EFF"/>
<stop offset="0.6177" stop-color="#574AFF"/>
<stop offset="0.8518" stop-color="#6E3EFF"/>
<stop offset="1" stop-color="#763AFF"/>
</linearGradient>
</defs>
</svg>
