<svg width="14" height="15" viewBox="0 0 14 15" fill="none" xmlns="http://www.w3.org/2000/svg">
<path d="M6.99994 0.307861C3.13431 0.307861 -6.10352e-05 3.44224 -6.10352e-05 7.30786C-6.10352e-05 11.1735 3.13431 14.3079 6.99994 14.3079C10.8656 14.3079 13.9999 11.1735 13.9999 7.30786C13.9999 3.44224 10.8656 0.307861 6.99994 0.307861ZM6.99994 13.1204C3.79056 13.1204 1.18744 10.5172 1.18744 7.30786C1.18744 4.09849 3.79056 1.49536 6.99994 1.49536C10.2093 1.49536 12.8124 4.09849 12.8124 7.30786C12.8124 10.5172 10.2093 13.1204 6.99994 13.1204Z" fill="#8A91A8"/>
<path d="M6.24994 4.55786C6.24994 4.75677 6.32896 4.94754 6.46961 5.08819C6.61026 5.22884 6.80103 5.30786 6.99994 5.30786C7.19885 5.30786 7.38962 5.22884 7.53027 5.08819C7.67092 4.94754 7.74994 4.75677 7.74994 4.55786C7.74994 4.35895 7.67092 4.16818 7.53027 4.02753C7.38962 3.88688 7.19885 3.80786 6.99994 3.80786C6.80103 3.80786 6.61026 3.88688 6.46961 4.02753C6.32896 4.16818 6.24994 4.35895 6.24994 4.55786ZM7.37494 6.30786H6.62494C6.55619 6.30786 6.49994 6.36411 6.49994 6.43286V10.6829C6.49994 10.7516 6.55619 10.8079 6.62494 10.8079H7.37494C7.44369 10.8079 7.49994 10.7516 7.49994 10.6829V6.43286C7.49994 6.36411 7.44369 6.30786 7.37494 6.30786Z" fill="#8A91A8"/>
</svg>
