<svg width="102" height="42" viewBox="0 0 102 42" fill="none" xmlns="http://www.w3.org/2000/svg">
<rect x="-0.000244141" width="102" height="42" rx="21" fill="#F3F4F7"/>
<rect x="2.99988" y="3" width="50" height="36" rx="18" fill="white"/>
<path d="M27.4277 13H28.5706V15.8571H27.4277V13Z" fill="#8A91A8"/>
<path d="M31.25 16.9435L33.2534 14.9395L34.0614 15.748L32.058 17.7515L31.25 16.9435Z" fill="#8A91A8"/>
<path d="M33.1426 20.4277H35.9997V21.5706H33.1426V20.4277Z" fill="#8A91A8"/>
<path d="M31.25 25.058L32.058 24.25L34.0614 26.2534L33.2534 27.062L31.25 25.058Z" fill="#8A91A8"/>
<path d="M27.4277 26.1426H28.5706V28.9997H27.4277V26.1426Z" fill="#8A91A8"/>
<path d="M21.9395 26.2534L23.9429 24.25L24.7509 25.0586L22.7475 27.062L21.9395 26.2534Z" fill="#8A91A8"/>
<path d="M20 20.4277H22.8571V21.5706H20V20.4277Z" fill="#8A91A8"/>
<path d="M21.9395 15.748L22.7475 14.9395L24.7509 16.9435L23.9429 17.7515L21.9395 15.748Z" fill="#8A91A8"/>
<path d="M26.5127 18.7737C26.9532 18.4794 27.4711 18.3223 28.0008 18.3223C28.7112 18.3223 29.3925 18.6045 29.8949 19.1068C30.3972 19.6091 30.6794 20.2904 30.6794 21.0008C30.6794 21.5306 30.5223 22.0485 30.228 22.489C29.9337 22.9295 29.5153 23.2728 29.0259 23.4755C28.5364 23.6782 27.9979 23.7313 27.4783 23.6279C26.9587 23.5246 26.4814 23.2695 26.1068 22.8949C25.7322 22.5203 25.4771 22.043 25.3737 21.5234C25.2704 21.0038 25.3234 20.4652 25.5262 19.9758C25.7289 19.4863 26.0722 19.068 26.5127 18.7737Z" stroke="#8A91A8" stroke-width="1.5"/>
<path d="M74.4202 14.014C74.8246 13.9114 75.0899 14.3936 74.869 14.742C74.2917 15.6512 73.9858 16.7062 73.987 17.7831C73.987 20.9728 76.6252 23.5581 79.8802 23.5581C80.7104 23.5595 81.5318 23.3878 82.2921 23.0541C82.6724 22.8861 83.1258 23.2081 82.9672 23.5861C81.8845 26.1761 79.2867 28 76.2534 28C72.2471 28 68.9999 24.8181 68.9999 20.8927C68.9999 17.5879 71.3021 14.8097 74.4202 14.014ZM74.4202 14.014L74.5551 14.5428L74.869 14.742L74.5552 14.5431L74.6056 14.7408C74.359 14.8037 74.1181 14.8804 73.884 14.97M74.4202 14.014L74.5543 14.5423L74.2358 14.3401C74.2357 14.3402 74.2356 14.3403 74.2355 14.3405M74.2355 14.3405C74.1062 14.5442 73.9889 14.7544 73.884 14.97M74.2355 14.3405C74.1845 14.421 74.1897 14.5164 74.2331 14.59C74.257 14.6304 74.3021 14.6815 74.3771 14.7162C74.4587 14.7539 74.5429 14.7567 74.6047 14.741L74.5544 14.5426L74.2355 14.3405ZM73.884 14.97C71.457 15.8982 69.7499 18.2074 69.7499 20.8927C69.7499 24.3896 72.6468 27.25 76.2534 27.25C78.6996 27.25 80.8237 25.9315 81.9336 23.9901M73.884 14.97C73.4586 15.8436 73.236 16.8056 73.237 17.7835C73.2372 21.4013 76.2252 24.3078 79.8795 24.3081C80.578 24.3092 81.2709 24.2015 81.9336 23.9901M81.9336 23.9901C82.1573 23.9188 82.3776 23.8356 82.5935 23.7409C82.5176 23.7737 82.4393 23.7589 82.3792 23.7134C82.3447 23.6874 82.2961 23.6361 82.2686 23.551C82.2384 23.4577 82.2472 23.3643 82.2752 23.2969C82.1754 23.5355 82.0612 23.7669 81.9336 23.9901Z" stroke="#8A91A8" stroke-width="1.5"/>
</svg>
