<svg width="27" height="24" viewBox="0 0 27 24" fill="none" xmlns="http://www.w3.org/2000/svg">
<path d="M1.50003 19.0883C2.71835 19.7622 11.5365 24.8452 17.8074 20.9275C24.0777 17.0098 23.7316 10.2601 23.7316 7.16665C24.3 5.97675 25.5 5.3717 25.5 2.15065C24.3215 3.23949 23.1499 3.60959 21.9853 3.26223C20.8447 1.52286 19.2752 0.752962 17.2762 0.953804C14.2788 1.25507 13.1823 4.1957 13.5051 8.00096C8.88319 10.3378 5.25919 6.30644 3.39098 3.26223C2.76698 5.6597 2.16571 8.53844 3.39098 11.7222C4.20824 13.8456 6.17308 15.6399 9.28424 17.1071C6.13077 18.8155 3.53624 19.4768 1.50003 19.0883Z" stroke="#8A91A8" stroke-width="1.68421" stroke-linejoin="round"/>
</svg>
